<svg width="23" height="23" viewBox="0 0 23 23" fill="none" xmlns="http://www.w3.org/2000/svg">
<path d="M19.6667 22V3.33333C19.6667 2.71449 19.4208 2.121 18.9832 1.68342C18.5457 1.24583 17.9522 1 17.3333 1H5.66667C5.04783 1 4.45434 1.24583 4.01675 1.68342C3.57917 2.121 3.33333 2.71449 3.33333 3.33333V22M19.6667 22H3.33333M19.6667 22H22M19.6667 22H13.8333M3.33333 22H1M3.33333 22H9.16667M13.8333 22V16.1667C13.8333 15.8572 13.7104 15.5605 13.4916 15.3417C13.2728 15.1229 12.9761 15 12.6667 15H10.3333C10.0239 15 9.72717 15.1229 9.50838 15.3417C9.28958 15.5605 9.16667 15.8572 9.16667 16.1667V22M13.8333 22H9.16667M8 5.66667H9.16667M8 10.3333H9.16667M13.8333 5.66667H15M13.8333 10.3333H15" stroke="currentColor" stroke-width="2" stroke-linecap="round" stroke-linejoin="round"/>
</svg>
