<svg width="10" height="10" viewBox="0 0 10 10" fill="none" xmlns="http://www.w3.org/2000/svg">
<g clip-path="url(#clip0_2100_10008)">
<path d="M5.3286 8.57152C5.29286 8.62605 5.24411 8.67082 5.18675 8.70181C5.12939 8.7328 5.06522 8.74902 5.00002 8.74902C4.93483 8.74902 4.87066 8.7328 4.8133 8.70181C4.75594 8.67082 4.70719 8.62605 4.67145 8.57152L0.385739 1.78581C0.354393 1.73151 0.337891 1.66993 0.337891 1.60723C0.337891 1.54454 0.354393 1.48296 0.385739 1.42866C0.420869 1.37348 0.469458 1.32813 0.526936 1.2969C0.584414 1.26566 0.648894 1.24955 0.71431 1.25009H9.28574C9.35116 1.24955 9.41563 1.26566 9.47311 1.2969C9.53059 1.32813 9.57918 1.37348 9.61431 1.42866C9.64566 1.48296 9.66216 1.54454 9.66216 1.60723C9.66216 1.66993 9.64566 1.73151 9.61431 1.78581L5.3286 8.57152Z" fill="#909090" stroke="#909090" stroke-linecap="round" stroke-linejoin="round"/>
</g>
<defs>
<clipPath id="clip0_2100_10008">
<rect width="10" height="10" fill="white" transform="matrix(1 0 0 -1 0 10)"/>
</clipPath>
</defs>
</svg>
