<svg width="32" height="32" viewBox="0 0 32 32" fill="none" xmlns="http://www.w3.org/2000/svg">
<path fill-rule="evenodd" clip-rule="evenodd" d="M12.8002 6.40044C11.1028 6.40044 9.47494 7.07473 8.27471 8.27496C7.07448 9.47519 6.4002 11.1031 6.4002 12.8004C6.4002 14.4978 7.07448 16.1257 8.27471 17.3259C9.47494 18.5262 11.1028 19.2004 12.8002 19.2004C14.4976 19.2004 16.1254 18.5262 17.3257 17.3259C18.5259 16.1257 19.2002 14.4978 19.2002 12.8004C19.2002 11.1031 18.5259 9.47519 17.3257 8.27496C16.1254 7.07473 14.4976 6.40044 12.8002 6.40044ZM3.2002 12.8004C3.2 11.2896 3.55642 9.79998 4.24047 8.45283C4.92452 7.10568 5.91687 5.939 7.13683 5.04769C8.35679 4.15637 9.7699 3.56558 11.2612 3.32338C12.7526 3.08117 14.28 3.19438 15.7193 3.65381C17.1587 4.11323 18.4692 4.90589 19.5445 5.96732C20.6197 7.02875 21.4292 8.32898 21.9072 9.76226C22.3851 11.1955 22.518 12.7214 22.2951 14.2157C22.0722 15.7101 21.4997 17.1307 20.6242 18.362L28.3314 26.0692C28.6229 26.371 28.7841 26.7752 28.7805 27.1947C28.7768 27.6142 28.6086 28.0155 28.3119 28.3122C28.0153 28.6088 27.614 28.7771 27.1944 28.7807C26.7749 28.7844 26.3708 28.6231 26.069 28.3316L18.3634 20.626C16.9272 21.6473 15.2376 22.2535 13.4797 22.3782C11.7218 22.503 9.96351 22.1414 8.39748 21.3332C6.83144 20.525 5.51809 19.3013 4.60135 17.7962C3.68461 16.2911 3.19985 14.5627 3.2002 12.8004Z" fill="#FF8D1D"/>
</svg>
