<svg width="31" height="31" viewBox="0 0 31 31" fill="none" xmlns="http://www.w3.org/2000/svg">
<path d="M12.9168 27.125H21.9585C22.6436 27.125 23.3007 26.8528 23.7852 26.3684C24.2697 25.8839 24.5418 25.2268 24.5418 24.5417V12.1597C24.5418 11.8172 24.4056 11.4887 24.1634 11.2465L17.1703 4.25346C16.9281 4.01121 16.5996 3.87507 16.2571 3.875H9.04183C8.35669 3.875 7.69961 4.14717 7.21514 4.63164C6.73067 5.11611 6.4585 5.77319 6.4585 6.45833V20.6667M6.4585 27.125L12.7605 20.823M12.7605 20.823C13.1192 21.1876 13.5466 21.4777 14.018 21.6764C14.4893 21.8751 14.9954 21.9785 15.5069 21.9806C16.0184 21.9828 16.5253 21.8836 16.9983 21.6889C17.4713 21.4941 17.9011 21.2077 18.2628 20.846C18.6246 20.4843 18.9111 20.0546 19.106 19.5817C19.3008 19.1087 19.4001 18.6019 19.3981 18.0903C19.3961 17.5788 19.2928 17.0727 19.0942 16.6013C18.8956 16.1299 18.6057 15.7025 18.2411 15.3437C17.5125 14.6267 16.53 14.2266 15.5078 14.2307C14.4856 14.2347 13.5063 14.6425 12.7834 15.3653C12.0605 16.088 11.6524 17.0672 11.6482 18.0894C11.6439 19.1117 12.0437 20.0942 12.7605 20.823Z" stroke="currentColor" stroke-width="2" stroke-linecap="round" stroke-linejoin="round"/>
</svg>
