<svg width="23" height="23" viewBox="0 0 23 23" fill="none" xmlns="http://www.w3.org/2000/svg">
<path d="M17.3333 5.66667H19.6667C20.2855 5.66667 20.879 5.9125 21.3166 6.35008C21.7542 6.78767 22 7.38116 22 8V15C22 15.6188 21.7542 16.2123 21.3166 16.6499C20.879 17.0875 20.2855 17.3333 19.6667 17.3333H17.3333V22L12.6667 17.3333H8C7.69355 17.3336 7.39006 17.2734 7.10696 17.1561C6.82385 17.0388 6.56672 16.8667 6.35033 16.6497M6.35033 16.6497L10.3333 12.6667H15C15.6188 12.6667 16.2123 12.4208 16.6499 11.9832C17.0875 11.5457 17.3333 10.9522 17.3333 10.3333V3.33333C17.3333 2.71449 17.0875 2.121 16.6499 1.68342C16.2123 1.24583 15.6188 1 15 1H3.33333C2.71449 1 2.121 1.24583 1.68342 1.68342C1.24583 2.121 1 2.71449 1 3.33333V10.3333C1 10.9522 1.24583 11.5457 1.68342 11.9832C2.121 12.4208 2.71449 12.6667 3.33333 12.6667H5.66667V17.3333L6.35033 16.6497Z" stroke="currentColor" stroke-width="2" stroke-linecap="round" stroke-linejoin="round"/>
</svg>
