<svg width="317" height="111" viewBox="0 0 317 111" fill="none" xmlns="http://www.w3.org/2000/svg">
<g filter="url(#filter0_d_2156_359)">
<rect width="313" height="106" fill="white"/>
</g>
<path d="M112.705 51.335C112.661 50.8271 112.473 50.4243 112.141 50.1265C111.814 49.8286 111.372 49.6797 110.815 49.6797C110.332 49.6797 109.917 49.7993 109.57 50.0386C109.229 50.2778 108.967 50.6245 108.787 51.0786C108.606 51.5278 108.516 52.0674 108.516 52.6973C108.516 53.6836 108.713 54.4331 109.109 54.9458C109.509 55.4585 110.073 55.7148 110.801 55.7148C111.328 55.7148 111.758 55.5806 112.09 55.312C112.427 55.0386 112.632 54.665 112.705 54.1914L115.532 54.2207C115.479 54.8604 115.259 55.4829 114.873 56.0884C114.492 56.689 113.948 57.1821 113.24 57.5679C112.537 57.9536 111.704 58.1465 110.742 58.1465C109.761 58.1465 108.884 57.9341 108.113 57.5093C107.341 57.0845 106.736 56.4619 106.296 55.6416C105.862 54.8213 105.645 53.8398 105.645 52.6973C105.645 51.5547 105.867 50.5732 106.311 49.7529C106.755 48.9326 107.363 48.3101 108.135 47.8853C108.906 47.4604 109.775 47.248 110.742 47.248C111.626 47.248 112.415 47.4092 113.108 47.7314C113.801 48.0488 114.358 48.5151 114.778 49.1304C115.203 49.7456 115.454 50.4805 115.532 51.335H112.705ZM126.325 52.6973C126.325 53.8398 126.101 54.8213 125.651 55.6416C125.207 56.4619 124.597 57.0845 123.82 57.5093C123.044 57.9341 122.17 58.1465 121.198 58.1465C120.222 58.1465 119.343 57.9341 118.562 57.5093C117.785 57.0845 117.172 56.4619 116.723 55.6416C116.279 54.8213 116.057 53.8398 116.057 52.6973C116.057 51.5547 116.279 50.5732 116.723 49.7529C117.172 48.9326 117.785 48.3101 118.562 47.8853C119.338 47.4604 120.217 47.248 121.198 47.248C122.17 47.248 123.044 47.4604 123.82 47.8853C124.597 48.3101 125.207 48.9326 125.651 49.7529C126.101 50.5732 126.325 51.5547 126.325 52.6973ZM123.454 52.6973C123.454 51.7256 123.259 50.981 122.868 50.4634C122.482 49.9409 121.926 49.6797 121.198 49.6797C120.466 49.6797 119.904 49.9409 119.514 50.4634C119.123 50.981 118.928 51.7256 118.928 52.6973C118.928 53.6689 119.123 54.416 119.514 54.9385C119.904 55.4561 120.466 55.7148 121.198 55.7148C121.926 55.7148 122.482 55.4561 122.868 54.9385C123.259 54.416 123.454 53.6689 123.454 52.6973ZM131.259 54.9531H131.347L133.573 47.3945H136.723L133.207 58H129.413L125.883 47.3945H129.032L131.259 54.9531ZM137.027 47.3945H144.601V49.6504H139.811V51.5693H144.205V53.8252H139.811V55.7441H144.586V58H137.027V47.3945ZM145.315 47.3945H149.827C150.613 47.3945 151.302 47.5386 151.893 47.8267C152.488 48.1147 152.947 48.5298 153.27 49.0718C153.592 49.6089 153.753 50.2461 153.753 50.9834C153.753 51.7061 153.594 52.3262 153.277 52.8438C152.964 53.3613 152.518 53.7568 151.937 54.0303L154.104 58H151.072L149.19 54.4697H148.099V58H145.315V47.3945ZM149.183 52.2871C149.725 52.2871 150.135 52.1821 150.413 51.9722C150.696 51.7622 150.838 51.4326 150.838 50.9834C150.838 50.5244 150.696 50.1826 150.413 49.958C150.13 49.7334 149.72 49.6211 149.183 49.6211H148.099V52.2871H149.183ZM154.263 47.3945H161.66V49.6504H157.046V51.5693H161.191V53.8252H157.046V58H154.263V47.3945ZM162.023 47.3945H164.807V55.7441H169.128V58H162.023V47.3945ZM179.35 52.6973C179.35 53.8398 179.125 54.8213 178.676 55.6416C178.231 56.4619 177.621 57.0845 176.845 57.5093C176.068 57.9341 175.194 58.1465 174.223 58.1465C173.246 58.1465 172.367 57.9341 171.586 57.5093C170.81 57.0845 170.197 56.4619 169.748 55.6416C169.303 54.8213 169.081 53.8398 169.081 52.6973C169.081 51.5547 169.303 50.5732 169.748 49.7529C170.197 48.9326 170.81 48.3101 171.586 47.8853C172.362 47.4604 173.241 47.248 174.223 47.248C175.194 47.248 176.068 47.4604 176.845 47.8853C177.621 48.3101 178.231 48.9326 178.676 49.7529C179.125 50.5732 179.35 51.5547 179.35 52.6973ZM176.479 52.6973C176.479 51.7256 176.283 50.981 175.893 50.4634C175.507 49.9409 174.95 49.6797 174.223 49.6797C173.49 49.6797 172.929 49.9409 172.538 50.4634C172.147 50.981 171.952 51.7256 171.952 52.6973C171.952 53.6689 172.147 54.416 172.538 54.9385C172.929 55.4561 173.49 55.7148 174.223 55.7148C174.95 55.7148 175.507 55.4561 175.893 54.9385C176.283 54.416 176.479 53.6689 176.479 52.6973ZM178.863 47.3945H181.969L183.463 54.0303H183.551L185.294 47.3945H187.755L189.513 54.0596H189.601L191.095 47.3945H194.2L191.08 58H188.399L186.568 51.9355H186.48L184.649 58H181.983L178.863 47.3945Z" fill="#FF8D1D"/>
<rect x="67" y="36" width="159" height="35" rx="17.5" stroke="#FF8D1D" stroke-width="2"/>
<defs>
<filter id="filter0_d_2156_359" x="-4" y="-3" width="321" height="114" filterUnits="userSpaceOnUse" color-interpolation-filters="sRGB">
<feFlood flood-opacity="0" result="BackgroundImageFix"/>
<feColorMatrix in="SourceAlpha" type="matrix" values="0 0 0 0 0 0 0 0 0 0 0 0 0 0 0 0 0 0 127 0" result="hardAlpha"/>
<feOffset dy="1"/>
<feGaussianBlur stdDeviation="2"/>
<feComposite in2="hardAlpha" operator="out"/>
<feColorMatrix type="matrix" values="0 0 0 0 0 0 0 0 0 0 0 0 0 0 0 0 0 0 0.25 0"/>
<feBlend mode="normal" in2="BackgroundImageFix" result="effect1_dropShadow_2156_359"/>
<feBlend mode="normal" in="SourceGraphic" in2="effect1_dropShadow_2156_359" result="shape"/>
</filter>
</defs>
</svg>
