<svg width="29" height="29" viewBox="0 0 29 29" fill="none" xmlns="http://www.w3.org/2000/svg">
<path d="M9.66667 19.3333L13.1455 15.8545M13.1455 15.8545C13.481 16.1957 13.8808 16.467 14.3218 16.6529C14.7627 16.8388 15.2361 16.9355 15.7146 16.9375C16.1931 16.9395 16.6673 16.8468 17.1098 16.6646C17.5523 16.4824 17.9544 16.2144 18.2928 15.8761C18.6312 15.5378 18.8992 15.1358 19.0815 14.6933C19.2638 14.2509 19.3567 13.7767 19.3548 13.2982C19.3529 12.8197 19.2563 12.3463 19.0705 11.9053C18.8847 11.4643 18.6135 11.0644 18.2724 10.7288C17.5908 10.058 16.6718 9.68379 15.7155 9.68757C14.7592 9.69135 13.8431 10.0729 13.1668 10.749C12.4906 11.4251 12.1088 12.3411 12.1048 13.2974C12.1008 14.2536 12.4749 15.1728 13.1455 15.8545ZM25.375 14.5C25.375 15.9281 25.0937 17.3423 24.5472 18.6617C24.0007 19.9811 23.1996 21.1799 22.1898 22.1898C21.1799 23.1996 19.9811 24.0007 18.6617 24.5472C17.3423 25.0937 15.9281 25.375 14.5 25.375C13.0719 25.375 11.6577 25.0937 10.3383 24.5472C9.0189 24.0007 7.82005 23.1996 6.81021 22.1898C5.80038 21.1799 4.99933 19.9811 4.45281 18.6617C3.90629 17.3423 3.625 15.9281 3.625 14.5C3.625 11.6158 4.77076 8.84967 6.81021 6.81021C8.84967 4.77076 11.6158 3.625 14.5 3.625C17.3842 3.625 20.1503 4.77076 22.1898 6.81021C24.2292 8.84967 25.375 11.6158 25.375 14.5Z" stroke="currentColor" stroke-width="2" stroke-linecap="round" stroke-linejoin="round"/>
</svg>
