<svg width="29" height="23" viewBox="0 0 29 23" fill="none" xmlns="http://www.w3.org/2000/svg">
<path d="M29 23H21.75H7.25H0V20.125C6.61195e-05 19.2288 0.281787 18.3548 0.805999 17.6246C1.33021 16.8945 2.07087 16.3444 2.92501 16.0508C3.77916 15.7572 4.70435 15.7347 5.57197 15.9865C6.43959 16.2382 7.20654 16.7517 7.7662 17.4556C8.30467 16.1215 9.23396 14.978 10.4342 14.1725C11.6345 13.367 13.0506 12.9365 14.5 12.9365C15.9494 12.9365 17.3655 13.367 18.5658 14.1725C19.766 14.978 20.6953 16.1215 21.2338 17.4556C21.7935 16.7517 22.5604 16.2382 23.428 15.9865C24.2957 15.7347 25.2208 15.7572 26.075 16.0508C26.9291 16.3444 27.6698 16.8945 28.194 17.6246C28.7182 18.3548 28.9999 19.2288 29 20.125V23Z" fill="#FF8D1D"/>
<path d="M17.5759 7.3619C18.3917 6.55315 18.85 5.45625 18.85 4.3125C18.85 3.16875 18.3917 2.07185 17.5759 1.2631C16.7601 0.454352 15.6537 0 14.5 0C13.3463 0 12.2399 0.454352 11.4241 1.2631C10.6083 2.07185 10.15 3.16875 10.15 4.3125C10.15 5.45625 10.6083 6.55315 11.4241 7.3619C12.2399 8.17065 13.3463 8.625 14.5 8.625C15.6537 8.625 16.7601 8.17065 17.5759 7.3619Z" fill="#FF8D1D"/>
<path d="M26.7006 10.6579C27.2445 10.1188 27.55 9.3875 27.55 8.625C27.55 7.8625 27.2445 7.13124 26.7006 6.59207C26.1568 6.0529 25.4191 5.75 24.65 5.75C23.8809 5.75 23.1432 6.0529 22.5994 6.59207C22.0555 7.13124 21.75 7.8625 21.75 8.625C21.75 9.3875 22.0555 10.1188 22.5994 10.6579C23.1432 11.1971 23.8809 11.5 24.65 11.5C25.4191 11.5 26.1568 11.1971 26.7006 10.6579Z" fill="#FF8D1D"/>
<path d="M6.40061 10.6579C6.94447 10.1188 7.25 9.3875 7.25 8.625C7.25 7.8625 6.94447 7.13124 6.40061 6.59207C5.85675 6.0529 5.11913 5.75 4.35 5.75C3.58087 5.75 2.84325 6.0529 2.29939 6.59207C1.75553 7.13124 1.45 7.8625 1.45 8.625C1.45 9.3875 1.75553 10.1188 2.29939 10.6579C2.84325 11.1971 3.58087 11.5 4.35 11.5C5.11913 11.5 5.85675 11.1971 6.40061 10.6579Z" fill="#FF8D1D"/>
</svg>
