<svg width="14" height="14" viewBox="0 0 14 14" fill="none" xmlns="http://www.w3.org/2000/svg">
<path d="M9.91667 4.66634H11.0833C11.3928 4.66634 11.6895 4.78926 11.9083 5.00805C12.1271 5.22684 12.25 5.52359 12.25 5.83301V9.33301C12.25 9.64243 12.1271 9.93917 11.9083 10.158C11.6895 10.3768 11.3928 10.4997 11.0833 10.4997H9.91667V12.833L7.58333 10.4997H5.25C5.09677 10.4998 4.94503 10.4697 4.80348 10.4111C4.66193 10.3524 4.53336 10.2663 4.42517 10.1578M4.42517 10.1578L6.41667 8.16634H8.75C9.05942 8.16634 9.35616 8.04342 9.57496 7.82463C9.79375 7.60584 9.91667 7.30909 9.91667 6.99967V3.49967C9.91667 3.19026 9.79375 2.89351 9.57496 2.67472C9.35616 2.45592 9.05942 2.33301 8.75 2.33301H2.91667C2.60725 2.33301 2.3105 2.45592 2.09171 2.67472C1.87292 2.89351 1.75 3.19026 1.75 3.49967V6.99967C1.75 7.30909 1.87292 7.60584 2.09171 7.82463C2.3105 8.04342 2.60725 8.16634 2.91667 8.16634H4.08333V10.4997L4.42517 10.1578Z" stroke="#474646" stroke-linecap="round" stroke-linejoin="round" stroke-width="1.5"/>
</svg>