<svg width="114" height="114" viewBox="0 0 90 90" fill="none" xmlns="http://www.w3.org/2000/svg">
<path d="M26.9389 0C14.0719 0 2.65553 9.05715 0.0926649 21.5154C-0.408393 23.9499 1.1735 26.3583 3.60637 26.8596C6.03925 27.3604 8.44693 25.7778 8.94754 23.3438C10.654 15.0484 18.3619 9 26.9389 9C29.423 9 31.4367 6.98535 31.4367 4.5C31.4367 2.01465 29.423 0 26.9389 0ZM62.9215 0C60.4373 0 58.4237 2.01465 58.4237 4.5C58.4237 6.98535 60.4373 9 62.9215 9C71.5083 9 79.3579 15.0354 81.0536 23.3438C81.5501 25.7787 83.9605 27.3564 86.3948 26.8596C88.8285 26.3623 90.4055 23.9508 89.9085 21.5154C87.3618 9.03735 75.8037 0 62.9215 0ZM44.9302 9C22.5733 9 4.44971 27.1323 4.44971 49.5C4.44971 58.9977 7.83298 67.9059 13.305 74.8125L5.85528 82.2654C4.09888 84.0231 4.09888 86.9769 5.85528 88.7346C7.61169 90.4919 10.4237 90.351 12.1806 88.5938L19.6299 81.1404C26.5332 86.6151 35.4371 90 44.9302 90C54.4233 90 63.3272 86.4747 70.2305 81L77.8205 88.7346C79.5769 90.4919 82.389 90.351 84.1458 88.5938C85.9022 86.8365 85.7615 84.0231 84.0051 82.2654L76.5557 74.6721C81.9464 68.1331 85.4106 58.9977 85.4106 49.5C85.4106 27.1323 67.2871 9 44.9302 9ZM44.9302 18C62.3188 18 76.415 32.103 76.415 49.5C76.415 66.897 62.3188 81 44.9302 81C27.5416 81 13.4454 66.897 13.4454 49.5C13.4454 32.103 27.5416 18 44.9302 18ZM44.9302 27C42.446 27 40.4323 29.0147 40.4323 31.5V45H26.9389C24.4547 45 22.441 47.0146 22.441 49.5C22.441 51.9853 24.4547 54 26.9389 54H44.9302C47.4143 54 49.428 51.9853 49.428 49.5V31.5C49.428 29.0147 47.4143 27 44.9302 27Z" fill="black"/>
</svg>
