<svg  width="25" height="25" viewBox="0 0 18 18" fill="none" xmlns="http://www.w3.org/2000/svg">
<path fill-rule="evenodd" clip-rule="evenodd" d="M13.3929 15.3127C14.7976 15.3127 15.9369 14.1743 15.9376 12.7695V12.768V10.743C15.0099 10.743 14.2584 9.9915 14.2576 9.06375C14.2576 8.13675 15.0091 7.3845 15.9369 7.3845H15.9376V5.3595C15.9391 3.954 14.8014 2.814 13.3966 2.8125H13.3921H4.60812C3.20262 2.8125 2.06337 3.951 2.06262 5.3565V5.35725V7.44975C2.95812 7.41825 3.70887 8.11875 3.74037 9.01425C3.74112 9.03075 3.74187 9.04725 3.74187 9.06375C3.74262 9.99 2.99337 10.7415 2.06712 10.743H2.06262V12.768C2.06187 14.1728 3.20112 15.3127 4.60587 15.3127H4.60662H13.3929Z" stroke="black" stroke-width="1.5" stroke-linecap="round" stroke-linejoin="round"/>
<path fill-rule="evenodd" clip-rule="evenodd" d="M9.27844 6.79727L9.74044 7.73252C9.78544 7.82402 9.87244 7.88777 9.97369 7.90277L11.0064 8.05352C11.2622 8.09102 11.3634 8.40452 11.1789 8.58377L10.4319 9.31127C10.3584 9.38252 10.3254 9.48527 10.3419 9.58652L10.5182 10.614C10.5617 10.8683 10.2954 11.0618 10.0674 10.9418L9.14419 10.4565C9.05344 10.4085 8.94544 10.4085 8.85469 10.4565L7.93219 10.9418C7.70344 11.0618 7.43719 10.8683 7.48069 10.614L7.65694 9.58652C7.67419 9.48527 7.64044 9.38252 7.56694 9.31127L6.82069 8.58377C6.63619 8.40452 6.73744 8.09102 6.99244 8.05352L8.02519 7.90277C8.12644 7.88777 8.21419 7.82402 8.25919 7.73252L8.72044 6.79727C8.83444 6.56627 9.16444 6.56627 9.27844 6.79727Z" stroke="black" stroke-width="1.5" stroke-linecap="round" stroke-linejoin="round"/>
</svg>
