<svg width="100" height="40" viewBox="0 0 243 64" fill="none" xmlns="http://www.w3.org/2000/svg">
<path d="M15 1H228C235.732 1 242 7.26801 242 15V34.7196C242 42.4516 235.732 48.7196 228 48.7196H141.42C138.323 48.7196 135.37 50.0248 133.285 52.3147L123.949 62.5706L112.586 51.7527C110.541 49.8056 107.825 48.7196 105.001 48.7196H15C7.26801 48.7196 1 42.4516 1 34.7196V15C1 7.26802 7.26801 1 15 1Z" stroke="#FF8D1D" stroke-width="2"/>
<path d="M47.9346 35.2441C46.6569 35.2441 45.5094 35.0244 44.4922 34.585C43.4831 34.1374 42.6855 33.5189 42.0996 32.7295C41.5218 31.932 41.2207 31.0286 41.1963 30.0195H44.9072C44.9316 30.4508 45.0781 30.8333 45.3467 31.167C45.6152 31.5007 45.9774 31.7611 46.4331 31.9482C46.8888 32.1273 47.3975 32.2168 47.959 32.2168C48.5368 32.2168 49.0535 32.1151 49.5093 31.9116C49.9731 31.7 50.3312 31.4111 50.5835 31.0449C50.8439 30.6787 50.9701 30.2637 50.9619 29.7998C50.9701 29.3197 50.8358 28.8924 50.5591 28.5181C50.2905 28.1437 49.904 27.8548 49.3994 27.6514C48.8949 27.4398 48.3008 27.334 47.6172 27.334H45.9814V24.624H47.6172C48.1868 24.624 48.6955 24.5264 49.1431 24.3311C49.5907 24.1357 49.9406 23.859 50.1929 23.501C50.4451 23.1429 50.5713 22.736 50.5713 22.2803C50.5713 21.8327 50.4614 21.438 50.2417 21.0962C50.0301 20.7544 49.729 20.4899 49.3384 20.3027C48.9478 20.1074 48.4961 20.0098 47.9834 20.0098C47.4626 20.0098 46.9824 20.1034 46.543 20.2905C46.1117 20.4696 45.7617 20.73 45.4932 21.0718C45.2327 21.4054 45.0944 21.792 45.0781 22.2314H41.5625C41.5788 21.2305 41.8677 20.3394 42.4292 19.5581C42.9907 18.7769 43.7557 18.1706 44.7241 17.7393C45.7007 17.2998 46.7871 17.0801 47.9834 17.0801C49.1878 17.0801 50.2539 17.2998 51.1816 17.7393C52.1175 18.1706 52.8418 18.7687 53.3545 19.5337C53.8672 20.2905 54.1195 21.1328 54.1113 22.0605C54.1195 22.7035 53.9811 23.2894 53.6963 23.8184C53.4196 24.3392 53.0249 24.7705 52.5122 25.1123C52.0076 25.4541 51.4258 25.682 50.7666 25.7959V25.9424C51.6211 26.0482 52.3494 26.2842 52.9517 26.6504C53.5539 27.0166 54.0096 27.4927 54.3188 28.0786C54.6281 28.6564 54.7786 29.3115 54.7705 30.0439C54.7786 31.0368 54.4897 31.932 53.9038 32.7295C53.3179 33.5189 52.5041 34.1374 51.4624 34.585C50.4207 35.0244 49.2448 35.2441 47.9346 35.2441ZM75.4629 34.707H55.126V32.168H63.7197V27.8223H66.8203V32.168H75.4629V34.707ZM73.6807 20.5713H66.8936C66.9831 21.4258 67.333 22.2437 67.9434 23.0249C68.5537 23.798 69.4326 24.4653 70.5801 25.0269C71.7275 25.5884 73.111 25.9668 74.7305 26.1621L73.6074 28.5791C71.6543 28.335 69.9657 27.8263 68.5415 27.0532C67.1174 26.2801 66.0269 25.3076 65.27 24.1357C64.5132 25.3076 63.4268 26.2801 62.0107 27.0532C60.5947 27.8263 58.9102 28.335 56.957 28.5791L55.8096 26.1621C57.429 25.9668 58.8125 25.5884 59.96 25.0269C61.1074 24.4653 61.9863 23.798 62.5967 23.0249C63.2152 22.2437 63.5732 21.4258 63.6709 20.5713H56.8838V18.0811H63.7197V15.2979H66.8203V18.0811H73.6807V20.5713ZM86.5605 27.5293H75.8916V16.8604H86.5605V27.5293ZM78.9678 25.0879H83.4844V19.3506H78.9678V25.0879ZM92.8594 21.4258H95.8623V23.9893H92.8594V31.2402H89.7344V15.0293H92.8594V21.4258ZM93.665 36.8555H78.4551V29.6533H81.5557V34.3652H93.665V36.8555ZM114.602 37.2461H111.623V15.0293H114.602V37.2461ZM109.963 36.2207H107.033V25.7227H105.239C105.149 27.1712 104.889 28.4204 104.458 29.4702C104.034 30.52 103.473 31.3257 102.773 31.8872C102.073 32.4487 101.271 32.7295 100.368 32.7295C99.3997 32.7295 98.5493 32.404 97.8169 31.7529C97.0926 31.1019 96.5311 30.1701 96.1323 28.9575C95.7336 27.7368 95.5342 26.3005 95.5342 24.6484C95.5342 23.0046 95.7336 21.5804 96.1323 20.376C96.5311 19.1634 97.0926 18.2357 97.8169 17.5928C98.5493 16.9417 99.3997 16.6162 100.368 16.6162C101.255 16.6162 102.041 16.8807 102.724 17.4097C103.416 17.9386 103.973 18.7036 104.396 19.7046C104.828 20.6974 105.1 21.8815 105.214 23.2568H107.033V15.3467H109.963V36.2207ZM100.368 19.5459C99.7334 19.5459 99.2451 19.9772 98.9033 20.8398C98.5697 21.7025 98.4069 22.972 98.415 24.6484C98.4069 26.333 98.5697 27.6066 98.9033 28.4692C99.2451 29.3237 99.7334 29.7428 100.368 29.7266C101.011 29.7428 101.507 29.3237 101.857 28.4692C102.215 27.6066 102.395 26.333 102.395 24.6484C102.395 22.972 102.215 21.7025 101.857 20.8398C101.507 19.9772 101.011 19.5459 100.368 19.5459ZM128.35 20.0586C128.35 21.4502 128.561 22.797 128.984 24.0991C129.408 25.3931 130.038 26.5446 130.876 27.5537C131.723 28.5547 132.752 29.3115 133.965 29.8242L132.134 32.3145C130.897 31.7529 129.831 30.9513 128.936 29.9097C128.049 28.8599 127.345 27.627 126.824 26.2109C126.303 27.7572 125.579 29.0999 124.651 30.2393C123.731 31.3786 122.612 32.2493 121.294 32.8516L119.414 30.2637C120.667 29.7347 121.725 28.9494 122.588 27.9077C123.451 26.8579 124.097 25.6576 124.529 24.3066C124.968 22.9557 125.192 21.5397 125.2 20.0586V16.7383H128.35V20.0586ZM138.311 37.2949H135.161V15.0293H138.311V37.2949ZM152.436 18.8135H148.017C148.025 19.7168 148.212 20.5876 148.578 21.4258C148.952 22.2559 149.526 23.0046 150.299 23.6719C151.072 24.3392 152.037 24.86 153.192 25.2344L151.605 27.6514C150.401 27.2689 149.368 26.7033 148.505 25.9546C147.65 25.1978 146.975 24.3066 146.479 23.2812C145.966 24.4043 145.262 25.3727 144.367 26.1865C143.472 27.0003 142.393 27.6107 141.132 28.0176L139.472 25.625C140.652 25.2425 141.64 24.6973 142.438 23.9893C143.244 23.2812 143.846 22.4837 144.245 21.5967C144.643 20.7015 144.851 19.7738 144.867 18.8135H140.326V16.3232H152.436V18.8135ZM157.44 20.4248H160.443V23.0127H157.44V28.4326H154.315V15.0293H157.44V20.4248ZM157.44 37.2461H154.315V31.8506H142.475V29.3848H157.44V37.2461ZM177.449 23.7207H180.721V26.2842H177.449V37.2461H174.373V15.0293H177.449V23.7207ZM172.859 20.8398H159.798V18.3496H164.827V15.3711H167.952V18.3496H172.859V20.8398ZM166.39 22.085C167.464 22.085 168.428 22.3128 169.283 22.7686C170.145 23.2161 170.821 23.8428 171.309 24.6484C171.806 25.4541 172.054 26.3656 172.054 27.3828C172.054 28.4001 171.806 29.3115 171.309 30.1172C170.821 30.9229 170.145 31.5535 169.283 32.0093C168.428 32.4569 167.464 32.6807 166.39 32.6807C165.307 32.6807 164.335 32.4569 163.472 32.0093C162.61 31.5535 161.93 30.9229 161.434 30.1172C160.945 29.3115 160.701 28.4001 160.701 27.3828C160.701 26.3656 160.945 25.4541 161.434 24.6484C161.93 23.8428 162.61 23.2161 163.472 22.7686C164.335 22.3128 165.307 22.085 166.39 22.085ZM166.39 24.5996C165.869 24.6077 165.401 24.7257 164.986 24.9536C164.579 25.1815 164.257 25.5029 164.021 25.918C163.794 26.333 163.68 26.8213 163.68 27.3828C163.68 27.9525 163.794 28.4448 164.021 28.8599C164.257 29.2749 164.579 29.5923 164.986 29.812C165.401 30.0236 165.869 30.1253 166.39 30.1172C166.91 30.1253 167.374 30.0236 167.781 29.812C168.188 29.5923 168.506 29.2749 168.733 28.8599C168.961 28.4448 169.075 27.9525 169.075 27.3828C169.075 26.8213 168.961 26.333 168.733 25.918C168.506 25.5029 168.188 25.1815 167.781 24.9536C167.374 24.7257 166.91 24.6077 166.39 24.5996ZM198.703 37.2461H195.554V15.0293H198.703V37.2461ZM192.038 17.3486C192.038 19.7249 191.717 21.8856 191.074 23.8306C190.439 25.7756 189.365 27.5618 187.851 29.1895C186.337 30.8089 184.299 32.2249 181.735 33.4375L180.1 30.9473C181.996 30.0521 183.558 29.0552 184.787 27.9565C186.024 26.8579 186.968 25.6413 187.619 24.3066C188.278 22.9639 188.693 21.4583 188.864 19.79H181.296V17.3486H192.038Z" fill="#FF8D1D"/>
</svg>
