<svg width="30" height="30" viewBox="0 0 30 30" fill="none" xmlns="http://www.w3.org/2000/svg">
<g clip-path="url(#clip0_2663_3390)">
<path d="M12.471 23.5714L17.1425 28.2214C17.4291 28.5152 17.7874 28.729 18.1821 28.8418C18.5767 28.9545 18.9939 28.9623 19.3925 28.8643C19.7935 28.7711 20.1638 28.5762 20.4678 28.2985C20.7718 28.0208 20.9992 27.6696 21.1282 27.2786L28.7996 4.28572C28.9597 3.8549 28.9927 3.38718 28.8948 2.93813C28.7968 2.48909 28.572 2.07762 28.247 1.75263C27.922 1.42764 27.5105 1.2028 27.0615 1.10483C26.6124 1.00687 26.1447 1.0399 25.7139 1.20001L2.72103 8.87144C2.31657 9.00959 1.95634 9.25324 1.67756 9.57722C1.39879 9.9012 1.21159 10.2937 1.13532 10.7143C1.05659 11.0968 1.07411 11.4928 1.18632 11.8668C1.29853 12.2409 1.50191 12.5812 1.77818 12.8572L7.6496 18.7286L7.45675 26.1643L12.471 23.5714Z" stroke="#000001" stroke-width="2" stroke-linecap="round" stroke-linejoin="round"/>
<path d="M28.1137 1.67145L7.64941 18.7286" stroke="#000001" stroke-width="2" stroke-linecap="round" stroke-linejoin="round"/>
</g>
<defs>
<clipPath id="clip0_2663_3390">
<rect width="30" height="30" fill="white"/>
</clipPath>
</defs>
</svg>
