<svg width="21" height="21" viewBox="0 0 21 21" fill="none" xmlns="http://www.w3.org/2000/svg">
<path d="M8.25 20.25V12.375C8.25 11.8777 8.44754 11.4008 8.79917 11.0492C9.15081 10.6975 9.62772 10.5 10.125 10.5V10.5C10.6223 10.5 11.0992 10.6975 11.4508 11.0492C11.8025 11.4008 12 11.8777 12 12.375V16.5H15C15.7956 16.5 16.5587 16.8161 17.1213 17.3787C17.6839 17.9413 18 18.7044 18 19.5V20.25" stroke="#000001" stroke-width="1.5" stroke-linecap="round" stroke-linejoin="round"/>
<path d="M5.085 12.9152C4.08908 11.9185 3.41101 10.649 3.13652 9.26699C2.86203 7.88501 3.00344 6.45269 3.54287 5.15107C4.0823 3.84945 4.99553 2.73699 6.16711 1.95432C7.3387 1.17165 8.71604 0.753906 10.125 0.753906C11.534 0.753906 12.9113 1.17165 14.0829 1.95432C15.2545 2.73699 16.1677 3.84945 16.7071 5.15107C17.2466 6.45269 17.388 7.88501 17.1135 9.26699C16.839 10.649 16.1609 11.9185 15.165 12.9152" stroke="#000001" stroke-width="1.5" stroke-linecap="round" stroke-linejoin="round"/>
</svg>
