<svg width="309" height="47" viewBox="0 0 309 47" fill="none" xmlns="http://www.w3.org/2000/svg">
<rect width="309" height="47" rx="10" fill="#CF4B35"/>
<path d="M124.471 19.418C124.471 20.1501 124.452 20.7996 124.414 21.3667C124.38 21.9295 124.293 22.5706 124.153 23.29H125.791V24.2803H121.183V29.0918H119.964V24.2803H115.419V23.29H122.935C123.087 22.5749 123.182 21.9338 123.22 21.3667C123.258 20.7954 123.277 20.1458 123.277 19.418V19.4053H116.688V18.415H124.471V19.418ZM134.704 18.9355C134.704 19.473 134.689 19.9618 134.66 20.4019C134.634 20.842 134.569 21.335 134.463 21.8809H136.024V22.8457H125.614V21.8809H133.251C133.356 21.3604 133.426 20.8864 133.46 20.459C133.494 20.0316 133.511 19.5957 133.511 19.1514H126.922V18.1865H134.704V18.9355ZM134.717 26.8447H128.052V28H135.009V28.9648H126.846V25.918H133.523V24.8262H126.833V23.8613H134.717V26.8447ZM146.22 27.7207H135.81V26.7051H140.393V24.7119H137.079V21.0938H143.757V19.4941H137.054V18.5039H144.95V22.0586H138.273V23.7217H145.217V24.7119H141.586V26.7051H146.22V27.7207ZM157.914 29.0791H156.772V17.7041H157.914V29.0791ZM155.591 28.5205H154.448V24.6484H152.506V23.6582H154.448V21.8047H152.69C152.11 23.8275 150.809 25.444 148.786 26.6543L148.075 25.791C149.26 25.0885 150.159 24.2633 150.773 23.3154C151.391 22.3675 151.753 21.2969 151.859 20.1035H148.634V19.1133H153.052C153.052 19.7057 153.005 20.2728 152.912 20.8145H154.448V17.9961H155.591V28.5205ZM168.732 24.3438H158.334V23.3535H162.917V21.6904H164.111V23.3535H168.732V24.3438ZM164.123 18.3643C164.123 18.8382 164.301 19.2868 164.656 19.71C165.012 20.1331 165.492 20.4907 166.097 20.7827C166.703 21.0747 167.369 21.2673 168.097 21.3604L167.627 22.3125C166.709 22.1686 165.879 21.883 165.139 21.4556C164.403 21.0282 163.859 20.5076 163.508 19.894C163.152 20.5119 162.604 21.0345 161.863 21.4619C161.127 21.8851 160.298 22.1686 159.375 22.3125L158.931 21.3604C159.65 21.2673 160.313 21.0747 160.918 20.7827C161.527 20.4907 162.009 20.1331 162.365 19.71C162.72 19.2826 162.9 18.834 162.904 18.3643V17.8818H164.123V18.3643ZM167.437 29.0791H166.218V26.2988H159.489V25.3467H167.437V29.0791ZM177.391 22.3125H179.219V23.3154H177.391V29.0791H176.198V17.7041H177.391V22.3125ZM175.207 20.4717H168.466V19.4814H171.272V17.8564H172.478V19.4814H175.207V20.4717ZM171.881 21.3096C172.419 21.3096 172.901 21.4217 173.328 21.646C173.756 21.8703 174.092 22.1834 174.338 22.5854C174.583 22.9875 174.708 23.4424 174.712 23.9502C174.708 24.4622 174.583 24.9193 174.338 25.3213C174.092 25.7233 173.756 26.0365 173.328 26.2607C172.901 26.485 172.419 26.5993 171.881 26.6035C171.339 26.5993 170.853 26.485 170.421 26.2607C169.994 26.0365 169.657 25.7233 169.412 25.3213C169.171 24.9193 169.05 24.4622 169.05 23.9502C169.05 23.4424 169.171 22.9875 169.412 22.5854C169.657 22.1834 169.994 21.8703 170.421 21.646C170.853 21.4217 171.339 21.3096 171.881 21.3096ZM171.881 22.2998C171.564 22.2998 171.276 22.3696 171.018 22.5093C170.76 22.6489 170.559 22.8436 170.415 23.0933C170.271 23.3429 170.201 23.6286 170.205 23.9502C170.201 24.276 170.271 24.5638 170.415 24.8135C170.559 25.0632 170.758 25.2557 171.011 25.3911C171.27 25.5265 171.559 25.5921 171.881 25.5879C172.198 25.5921 172.484 25.5265 172.738 25.3911C172.996 25.2557 173.197 25.0632 173.341 24.8135C173.485 24.5638 173.557 24.276 173.557 23.9502C173.557 23.6286 173.485 23.3429 173.341 23.0933C173.197 22.8436 172.996 22.6489 172.738 22.5093C172.484 22.3696 172.198 22.2998 171.881 22.2998ZM188.183 29.0791H186.964V17.7041H188.183V29.0791ZM184.793 18.9229C184.793 20.6833 184.372 22.249 183.53 23.6201C182.692 24.987 181.34 26.1169 179.474 27.0098L178.839 26.0322C180.333 25.3213 181.465 24.4559 182.235 23.436C183.01 22.4162 183.456 21.2334 183.574 19.8877H179.385V18.9229H184.793Z" fill="white"/>
</svg>
