<svg width="17" height="17" viewBox="0 0 17 17" fill="none" xmlns="http://www.w3.org/2000/svg">
<g clip-path="url(#clip0_2543_4687)">
<path d="M1.50562 7.94141L15.4699 1.5907" stroke="#428238" stroke-linecap="round" stroke-linejoin="round"/>
<path d="M12.8591 0.607117L15.4698 1.59069L14.4984 4.2014" stroke="#428238" stroke-linecap="round" stroke-linejoin="round"/>
<path d="M16.0891 16.405H13.0534V7.90497C13.0534 7.74394 13.1174 7.58952 13.2312 7.47565C13.3451 7.36179 13.4995 7.29783 13.6605 7.29783H15.482C15.643 7.29783 15.7974 7.36179 15.9113 7.47565C16.0251 7.58952 16.0891 7.74394 16.0891 7.90497V16.405Z" stroke="#428238" stroke-linecap="round" stroke-linejoin="round"/>
<path d="M10.0178 16.405H6.98211L6.98211 9.7264C6.98211 9.56537 7.04607 9.41094 7.15994 9.29708C7.2738 9.18322 7.42823 9.11925 7.58925 9.11925H9.41068C9.5717 9.11925 9.72613 9.18322 9.83999 9.29708C9.95386 9.41094 10.0178 9.56537 10.0178 9.7264V16.405Z" stroke="#428238" stroke-linecap="round" stroke-linejoin="round"/>
<path d="M3.94629 16.405H0.910575L0.910575 11.5478C0.910575 11.3868 0.974542 11.2324 1.0884 11.1185C1.20226 11.0046 1.35669 10.9407 1.51772 10.9407H3.33915C3.50017 10.9407 3.6546 11.0046 3.76846 11.1185C3.88232 11.2324 3.94629 11.3868 3.94629 11.5478L3.94629 16.405Z" stroke="#428238" stroke-linecap="round" stroke-linejoin="round"/>
</g>
<defs>
<clipPath id="clip0_2543_4687">
<rect width="17" height="17" fill="white"/>
</clipPath>
</defs>
</svg>
