<svg width="18" height="17" viewBox="0 0 18 17" fill="none" xmlns="http://www.w3.org/2000/svg">
<path d="M17 8.31642C17.0011 8.15873 16.9667 8.00255 16.8989 7.85781C16.8311 7.71307 16.7314 7.58294 16.6061 7.47572L9 1L1.39387 7.47572C1.26861 7.58294 1.1689 7.71307 1.1011 7.85781C1.03329 8.00255 0.998872 8.15873 1.00003 8.31642V14.6331C1.00003 14.9344 1.1297 15.2234 1.36051 15.4364C1.59132 15.6495 1.90437 15.7692 2.23079 15.7692H15.7692C16.0956 15.7692 16.4087 15.6495 16.6395 15.4364C16.8703 15.2234 17 14.9344 17 14.6331V8.31642Z" stroke="#713D00" stroke-width="0.8" stroke-linecap="round" stroke-linejoin="round"/>
<path d="M9.00098 9.52068V1" stroke="#713D00" stroke-width="0.8" stroke-linecap="round" stroke-linejoin="round"/>
<path d="M1 9.521H16.9999" stroke="#713D00" stroke-width="0.8" stroke-linecap="round" stroke-linejoin="round"/>
<path d="M1 12.645H5.30768" stroke="#713D00" stroke-width="0.8" stroke-linecap="round" stroke-linejoin="round"/>
<path d="M12.6914 12.645H16.9991" stroke="#713D00" stroke-width="0.8" stroke-linecap="round" stroke-linejoin="round"/>
<path d="M5.30762 15.7692V4.14697" stroke="#713D00" stroke-width="0.8" stroke-linecap="round" stroke-linejoin="round"/>
<path d="M12.6914 15.7692V4.14697" stroke="#713D00" stroke-width="0.8" stroke-linecap="round" stroke-linejoin="round"/>
</svg>
