<svg width="35" height="20" viewBox="0 0 35 20" fill="none" xmlns="http://www.w3.org/2000/svg">
<rect x="0.25" y="0.25" width="34.5" height="19.5" rx="9.75" fill="#FF8D1D" stroke="#FF8D1D" stroke-width="0.5"/>
<path d="M10.0547 6.88965H11.3828V9.1709H13.6562V6.88965H14.9844V12.5459H13.6562V10.2568H11.3828V12.5459H10.0547V6.88965ZM20.5084 9.71777C20.5084 10.3245 20.3913 10.8467 20.1569 11.2842C19.9251 11.7217 19.6048 12.055 19.1959 12.2842C18.7897 12.5107 18.3314 12.624 17.8209 12.624C17.3079 12.624 16.8483 12.5094 16.442 12.2803C16.0358 12.0511 15.7155 11.7178 15.4811 11.2803C15.2493 10.8428 15.1334 10.3219 15.1334 9.71777C15.1334 9.111 15.2493 8.58887 15.4811 8.15137C15.7155 7.71387 16.0358 7.38184 16.442 7.15527C16.8483 6.92611 17.3079 6.81152 17.8209 6.81152C18.3314 6.81152 18.7897 6.92611 19.1959 7.15527C19.6048 7.38184 19.9251 7.71387 20.1569 8.15137C20.3913 8.58887 20.5084 9.111 20.5084 9.71777ZM19.1491 9.71777C19.1491 9.34798 19.0957 9.03288 18.9889 8.77246C18.8847 8.51204 18.7324 8.31543 18.5319 8.18262C18.334 8.0498 18.097 7.9834 17.8209 7.9834C17.5449 7.9834 17.3066 8.0498 17.1061 8.18262C16.9082 8.31543 16.7558 8.51204 16.6491 8.77246C16.5449 9.03288 16.4928 9.34798 16.4928 9.71777C16.4928 10.0876 16.5449 10.4027 16.6491 10.6631C16.7558 10.9235 16.9082 11.1201 17.1061 11.2529C17.3066 11.3857 17.5449 11.4521 17.8209 11.4521C18.097 11.4521 18.334 11.3857 18.5319 11.2529C18.7324 11.1201 18.8847 10.9235 18.9889 10.6631C19.0957 10.4027 19.1491 10.0876 19.1491 9.71777ZM20.2044 6.88965H24.9622V7.97559H23.2434V12.5459H21.9231V7.97559H20.2044V6.88965Z" fill="#FFF9F4"/>
</svg>
