<svg width="18" height="19" viewBox="0 0 18 19" fill="none" xmlns="http://www.w3.org/2000/svg">
<path d="M7.07139 12.8929L3.85711 5.42859L0.642822 12.8929C0.642822 13.7927 0.981469 14.6557 1.58426 15.292C2.18706 15.9283 3.00463 16.2857 3.85711 16.2857C4.70959 16.2857 5.52716 15.9283 6.12995 15.292C6.73275 14.6557 7.07139 13.7927 7.07139 12.8929Z" stroke="#000001" stroke-linecap="round" stroke-linejoin="round"/>
<path d="M17.357 12.8929L14.1428 5.42859L10.9285 12.8929C10.9285 13.7927 11.2671 14.6557 11.8699 15.292C12.4727 15.9283 13.2903 16.2857 14.1428 16.2857C14.9952 16.2857 15.8128 15.9283 16.4156 15.292C17.0184 14.6557 17.357 13.7927 17.357 12.8929Z" stroke="#000001" stroke-linecap="round" stroke-linejoin="round"/>
<path d="M1.92847 5.42859H16.0713" stroke="#000001" stroke-linecap="round" stroke-linejoin="round"/>
<path d="M9 5.42858V2.71429" stroke="#000001" stroke-linecap="round" stroke-linejoin="round"/>
</svg>
