<svg width="300" height="90" viewBox="0 0 600 90" fill="none" xmlns="http://www.w3.org/2000/svg">
<rect width="600" height="90" rx="10" fill="#FEE500"/>
<path d="M253.59 35.4492C253.581 37.974 253.239 40.3027 252.564 42.4355C251.89 44.5592 250.732 46.5417 249.092 48.3828C247.451 50.2148 245.232 51.819 242.434 53.1953L241.23 51.5547C243.464 50.4792 245.3 49.2487 246.74 47.8633C248.18 46.4688 249.279 44.9284 250.035 43.2422L241.695 44.0352L241.34 42.1484L250.691 41.5195C251.102 40.1888 251.357 38.7578 251.457 37.2266H242.57V35.4492H253.59ZM259.797 42.8047H263.734V44.6094H259.797V57.2148H257.664V32.9062H259.797V42.8047ZM276.949 35.4492C276.94 37.974 276.598 40.3027 275.924 42.4355C275.249 44.5592 274.092 46.5417 272.451 48.3828C270.81 50.2148 268.591 51.819 265.793 53.1953L264.59 51.5547C266.823 50.4792 268.659 49.2487 270.099 47.8633C271.54 46.4688 272.638 44.9284 273.394 43.2422L265.055 44.0352L264.699 42.1484L274.051 41.5195C274.461 40.1888 274.716 38.7578 274.816 37.2266H265.93V35.4492H276.949ZM283.156 42.8047H287.094V44.6094H283.156V57.2148H281.023V32.9062H283.156V42.8047ZM298.777 34.4922C300.491 34.5013 302.022 34.7702 303.371 35.2988C304.72 35.8275 305.772 36.5749 306.529 37.541C307.285 38.498 307.664 39.6055 307.664 40.8633C307.664 42.0482 307.331 43.1009 306.666 44.0215C306.009 44.9421 305.089 45.6758 303.904 46.2227C302.719 46.7695 301.356 47.0931 299.816 47.1934V52.293H309.961V54.0977H287.703V52.293H297.711V47.1934C296.179 47.0931 294.821 46.7695 293.636 46.2227C292.452 45.6667 291.531 44.9329 290.875 44.0215C290.218 43.1009 289.89 42.0482 289.89 40.8633C289.89 39.6055 290.269 38.498 291.025 37.541C291.782 36.5749 292.834 35.8275 294.183 35.2988C295.532 34.7702 297.063 34.5013 298.777 34.4922ZM298.777 36.2695C297.474 36.2695 296.302 36.4655 295.263 36.8574C294.233 37.2402 293.427 37.7826 292.843 38.4844C292.26 39.1771 291.968 39.9701 291.968 40.8633C291.968 41.7839 292.26 42.5951 292.843 43.2969C293.427 43.9987 294.233 44.541 295.263 44.9238C296.293 45.3066 297.465 45.5026 298.777 45.5117C300.09 45.5026 301.261 45.3066 302.291 44.9238C303.321 44.541 304.127 43.9987 304.711 43.2969C305.294 42.5951 305.586 41.7839 305.586 40.8633C305.586 39.9701 305.294 39.1771 304.711 38.4844C304.127 37.7826 303.316 37.2402 302.277 36.8574C301.247 36.4655 300.08 36.2695 298.777 36.2695ZM339.507 54.207H317.249V52.4023H327.257V47.8086H320.038V40.3164H334.585V36.4883H319.984V34.7109H336.691V42.0664H322.171V46.0312H337.265V47.8086H329.363V52.4023H339.507V54.207ZM359.777 37.9375C359.777 39.332 359.758 40.5488 359.722 41.5879C359.695 42.627 359.617 43.8392 359.489 45.2246C359.362 46.61 359.157 48.1185 358.874 49.75L356.687 49.5312C356.988 47.9909 357.211 46.5417 357.357 45.1836C357.502 43.8164 357.589 42.6133 357.616 41.5742C357.653 40.526 357.671 39.3138 357.671 37.9375V37.2812H343.015V35.5039H359.777V37.9375ZM362.757 53.6328H340.609V51.8555H362.757V53.6328ZM384.038 50.707H381.905V32.9336H384.038V50.707ZM384.804 56.6953H368.343V48.9023H370.476V54.8906H384.804V56.6953ZM370.913 34.6289C372.116 34.6289 373.201 34.8841 374.167 35.3945C375.142 35.8958 375.903 36.6022 376.45 37.5137C377.006 38.416 377.284 39.4414 377.284 40.5898C377.284 41.7565 377.006 42.7956 376.45 43.707C375.903 44.6094 375.142 45.3158 374.167 45.8262C373.201 46.3275 372.116 46.5781 370.913 46.5781C369.71 46.5781 368.621 46.3275 367.646 45.8262C366.679 45.3158 365.918 44.6094 365.362 43.707C364.815 42.7956 364.542 41.7565 364.542 40.5898C364.542 39.4414 364.815 38.416 365.362 37.5137C365.918 36.6022 366.679 35.8958 367.646 35.3945C368.621 34.8841 369.71 34.6289 370.913 34.6289ZM370.913 36.5156C370.102 36.5156 369.368 36.6888 368.712 37.0352C368.065 37.3815 367.554 37.8646 367.181 38.4844C366.816 39.1042 366.638 39.806 366.647 40.5898C366.638 41.3828 366.816 42.0938 367.181 42.7227C367.554 43.3424 368.065 43.8255 368.712 44.1719C369.368 44.5182 370.102 44.6914 370.913 44.6914C371.706 44.6914 372.426 44.5182 373.073 44.1719C373.73 43.8255 374.245 43.3424 374.618 42.7227C374.992 42.0938 375.179 41.3828 375.179 40.5898C375.179 39.8151 374.992 39.1178 374.618 38.498C374.245 37.8783 373.73 37.3952 373.073 37.0488C372.426 36.6934 371.706 36.5156 370.913 36.5156Z" fill="black"/>
<ellipse cx="51" cy="44" rx="18" ry="14" fill="black"/>
<path d="M39.207 63.5521L49.2899 57.4977L42.0031 52.1284L39.207 63.5521Z" fill="black"/>
</svg>
