<svg width="309" height="47" viewBox="0 0 309 47" fill="none" xmlns="http://www.w3.org/2000/svg">
<rect width="309" height="47" rx="10" fill="#F0DF46"/>
<path d="M104.335 18.8594C104.331 20.0697 104.176 21.1742 103.872 22.1729C103.571 23.1715 103.04 24.1025 102.278 24.9658C101.517 25.8291 100.471 26.5866 99.1426 27.2383L98.4824 26.3369C99.4854 25.846 100.308 25.2959 100.952 24.6865C101.595 24.0771 102.092 23.4022 102.443 22.6616L98.7236 23.0107L98.5459 21.9697L102.812 21.6841C102.977 21.117 103.082 20.5013 103.129 19.8369H99.1426V18.8594H104.335ZM107.28 22.249H109.045V23.2393H107.28V29.0664H106.074V17.7041H107.28V22.249ZM114.53 18.8594C114.526 20.0697 114.372 21.1742 114.067 22.1729C113.766 23.1715 113.235 24.1025 112.474 24.9658C111.712 25.8291 110.667 26.5866 109.338 27.2383L108.678 26.3369C109.681 25.846 110.504 25.2959 111.147 24.6865C111.79 24.0771 112.287 23.4022 112.639 22.6616L108.919 23.0107L108.741 21.9697L113.007 21.6841C113.172 21.117 113.278 20.5013 113.324 19.8369H109.338V18.8594H114.53ZM117.476 22.249H119.24V23.2393H117.476V29.0664H116.27V17.7041H117.476V22.249ZM123.989 18.3896C124.798 18.3939 125.519 18.5229 126.154 18.7769C126.793 19.0265 127.292 19.3799 127.652 19.8369C128.012 20.2897 128.191 20.8145 128.191 21.4111C128.191 21.9697 128.039 22.467 127.734 22.9028C127.434 23.3345 127.011 23.6815 126.465 23.9438C125.923 24.202 125.297 24.3607 124.586 24.4199V26.6543H129.22V27.6572H118.81V26.6543H123.393V24.4199C122.686 24.3607 122.062 24.202 121.52 23.9438C120.978 23.6815 120.555 23.3345 120.251 22.9028C119.95 22.467 119.8 21.9697 119.8 21.4111C119.8 20.8145 119.98 20.2897 120.339 19.8369C120.699 19.3799 121.196 19.0265 121.831 18.7769C122.466 18.5229 123.185 18.3939 123.989 18.3896ZM123.989 19.3799C123.41 19.3757 122.889 19.4582 122.428 19.6274C121.971 19.7925 121.613 20.0316 121.355 20.3447C121.097 20.6536 120.968 21.0091 120.968 21.4111C120.968 21.8301 121.097 22.1961 121.355 22.5093C121.613 22.8224 121.971 23.0636 122.428 23.2329C122.885 23.4022 123.405 23.4889 123.989 23.4932C124.578 23.4889 125.1 23.4022 125.557 23.2329C126.018 23.0636 126.378 22.8224 126.636 22.5093C126.894 22.1961 127.024 21.8301 127.024 21.4111C127.024 21.0091 126.894 20.6536 126.636 20.3447C126.378 20.0316 126.018 19.7925 125.557 19.6274C125.096 19.4582 124.573 19.3757 123.989 19.3799ZM139.377 24.7627H128.98V23.7979H133.575V22.7188H130.338V17.9961H138.108V18.9482H131.557V19.875H137.816V20.7891H131.557V21.792H138.184V22.7188H134.781V23.7979H139.377V24.7627ZM138.057 29.0791H136.825V26.6416H130.16V25.6768H138.057V29.0791ZM144.38 18.3896C145.171 18.3896 145.887 18.5229 146.526 18.7896C147.165 19.0519 147.666 19.4243 148.03 19.9067C148.398 20.3849 148.582 20.9372 148.582 21.5635C148.582 22.1898 148.398 22.7441 148.03 23.2266C147.666 23.709 147.165 24.0835 146.526 24.3501C145.887 24.6125 145.171 24.7415 144.38 24.7373C143.589 24.7415 142.874 24.6125 142.235 24.3501C141.6 24.0835 141.1 23.709 140.736 23.2266C140.373 22.7441 140.191 22.1898 140.191 21.5635C140.191 20.9372 140.373 20.3849 140.736 19.9067C141.1 19.4243 141.6 19.0519 142.235 18.7896C142.874 18.5229 143.589 18.3896 144.38 18.3896ZM144.38 19.3672C143.805 19.363 143.284 19.4539 142.819 19.6401C142.357 19.8221 141.995 20.0802 141.733 20.4146C141.471 20.7489 141.342 21.1318 141.346 21.5635C141.342 21.9993 141.471 22.3823 141.733 22.7124C141.995 23.0425 142.357 23.2985 142.819 23.4805C143.28 23.6582 143.8 23.7471 144.38 23.7471C144.96 23.7471 145.478 23.6582 145.935 23.4805C146.396 23.2985 146.758 23.0425 147.021 22.7124C147.283 22.3823 147.414 21.9993 147.414 21.5635C147.414 21.1318 147.283 20.7489 147.021 20.4146C146.758 20.0802 146.396 19.8221 145.935 19.6401C145.474 19.4539 144.956 19.363 144.38 19.3672ZM149.611 27.6064H139.2V26.6035H149.611V27.6064ZM159.806 27.7207H149.396V26.7051H153.979V24.7119H150.665V21.0938H157.343V19.4941H150.64V18.5039H158.536V22.0586H151.859V23.7217H158.803V24.7119H155.172V26.7051H159.806V27.7207ZM171.5 29.0791H170.358V17.7041H171.5V29.0791ZM169.177 28.5205H168.034V24.6484H166.092V23.6582H168.034V21.8047H166.276C165.696 23.8275 164.395 25.444 162.372 26.6543L161.661 25.791C162.846 25.0885 163.746 24.2633 164.359 23.3154C164.977 22.3675 165.339 21.2969 165.445 20.1035H162.22V19.1133H166.638C166.638 19.7057 166.591 20.2728 166.498 20.8145H168.034V17.9961H169.177V28.5205ZM182.318 24.3438H171.92V23.3535H176.503V21.6904H177.697V23.3535H182.318V24.3438ZM177.709 18.3643C177.709 18.8382 177.887 19.2868 178.243 19.71C178.598 20.1331 179.078 20.4907 179.683 20.7827C180.289 21.0747 180.955 21.2673 181.683 21.3604L181.213 22.3125C180.295 22.1686 179.465 21.883 178.725 21.4556C177.989 21.0282 177.445 20.5076 177.094 19.894C176.738 20.5119 176.19 21.0345 175.45 21.4619C174.713 21.8851 173.884 22.1686 172.961 22.3125L172.517 21.3604C173.236 21.2673 173.899 21.0747 174.504 20.7827C175.113 20.4907 175.596 20.1331 175.951 19.71C176.306 19.2826 176.486 18.834 176.491 18.3643V17.8818H177.709V18.3643ZM181.023 29.0791H179.804V26.2988H173.076V25.3467H181.023V29.0791ZM190.977 22.3125H192.805V23.3154H190.977V29.0791H189.784V17.7041H190.977V22.3125ZM188.793 20.4717H182.052V19.4814H184.858V17.8564H186.064V19.4814H188.793V20.4717ZM185.467 21.3096C186.005 21.3096 186.487 21.4217 186.914 21.646C187.342 21.8703 187.678 22.1834 187.924 22.5854C188.169 22.9875 188.294 23.4424 188.298 23.9502C188.294 24.4622 188.169 24.9193 187.924 25.3213C187.678 25.7233 187.342 26.0365 186.914 26.2607C186.487 26.485 186.005 26.5993 185.467 26.6035C184.925 26.5993 184.439 26.485 184.007 26.2607C183.58 26.0365 183.243 25.7233 182.998 25.3213C182.757 24.9193 182.636 24.4622 182.636 23.9502C182.636 23.4424 182.757 22.9875 182.998 22.5854C183.243 22.1834 183.58 21.8703 184.007 21.646C184.439 21.4217 184.925 21.3096 185.467 21.3096ZM185.467 22.2998C185.15 22.2998 184.862 22.3696 184.604 22.5093C184.346 22.6489 184.145 22.8436 184.001 23.0933C183.857 23.3429 183.787 23.6286 183.791 23.9502C183.787 24.276 183.857 24.5638 184.001 24.8135C184.145 25.0632 184.344 25.2557 184.598 25.3911C184.856 25.5265 185.146 25.5921 185.467 25.5879C185.785 25.5921 186.07 25.5265 186.324 25.3911C186.582 25.2557 186.783 25.0632 186.927 24.8135C187.071 24.5638 187.143 24.276 187.143 23.9502C187.143 23.6286 187.071 23.3429 186.927 23.0933C186.783 22.8436 186.582 22.6489 186.324 22.5093C186.07 22.3696 185.785 22.2998 185.467 22.2998ZM201.769 29.0791H200.55V17.7041H201.769V29.0791ZM198.379 18.9229C198.379 20.6833 197.958 22.249 197.116 23.6201C196.278 24.987 194.926 26.1169 193.06 27.0098L192.425 26.0322C193.919 25.3213 195.051 24.4559 195.821 23.436C196.596 22.4162 197.042 21.2334 197.161 19.8877H192.971V18.9229H198.379Z" fill="black"/>
</svg>
