<svg width="377" height="36" viewBox="0 0 377 36" fill="none" xmlns="http://www.w3.org/2000/svg">
<rect width="377" height="36" rx="10" fill="#FEE500"/>
<path d="M160.28 12.5264C160.275 13.8789 160.092 15.1265 159.731 16.269C159.37 17.4067 158.75 18.4688 157.871 19.4551C156.992 20.4365 155.803 21.2959 154.304 22.0332L153.659 21.1543C154.855 20.5781 155.839 19.9189 156.611 19.1768C157.382 18.4297 157.971 17.6045 158.376 16.7012L153.908 17.126L153.718 16.1152L158.728 15.7783C158.947 15.0654 159.084 14.2988 159.138 13.4785H154.377V12.5264H160.28ZM163.605 16.4668H165.715V17.4336H163.605V24.1865H162.463V11.1641H163.605V16.4668ZM172.719 12.5264C172.714 13.8789 172.531 15.1265 172.17 16.269C171.808 17.4067 171.188 18.4688 170.309 19.4551C169.431 20.4365 168.242 21.2959 166.743 22.0332L166.098 21.1543C167.294 20.5781 168.278 19.9189 169.05 19.1768C169.821 18.4297 170.41 17.6045 170.815 16.7012L166.347 17.126L166.157 16.1152L171.166 15.7783C171.386 15.0654 171.523 14.2988 171.577 13.4785H166.816V12.5264H172.719ZM176.044 16.4668H178.154V17.4336H176.044V24.1865H174.902V11.1641H176.044V16.4668ZM184.338 12.0137C185.256 12.0186 186.076 12.1626 186.799 12.4458C187.521 12.729 188.085 13.1294 188.491 13.647C188.896 14.1597 189.098 14.7529 189.098 15.4268C189.098 16.0615 188.92 16.6255 188.564 17.1187C188.212 17.6118 187.719 18.0049 187.084 18.2979C186.45 18.5908 185.72 18.7642 184.894 18.8179V21.5498H190.329V22.5166H178.405V21.5498H183.766V18.8179C182.946 18.7642 182.219 18.5908 181.584 18.2979C180.949 18 180.456 17.6069 180.104 17.1187C179.753 16.6255 179.577 16.0615 179.577 15.4268C179.577 14.7529 179.78 14.1597 180.185 13.647C180.59 13.1294 181.154 12.729 181.877 12.4458C182.599 12.1626 183.42 12.0186 184.338 12.0137ZM184.338 12.9658C183.639 12.9658 183.012 13.0708 182.455 13.2808C181.904 13.4858 181.471 13.7764 181.159 14.1523C180.846 14.5234 180.69 14.9482 180.69 15.4268C180.69 15.9199 180.846 16.3545 181.159 16.7305C181.471 17.1064 181.904 17.397 182.455 17.6021C183.007 17.8071 183.635 17.9121 184.338 17.917C185.041 17.9121 185.668 17.8071 186.22 17.6021C186.772 17.397 187.204 17.1064 187.516 16.7305C187.829 16.3545 187.985 15.9199 187.985 15.4268C187.985 14.9482 187.829 14.5234 187.516 14.1523C187.204 13.7764 186.769 13.4858 186.213 13.2808C185.661 13.0708 185.036 12.9658 184.338 12.9658ZM206.007 22.5752H194.084V21.6084H199.445V19.1475H195.578V15.1338H203.371V13.083H195.548V12.1309H204.499V16.0713H196.72V18.1953H204.806V19.1475H200.573V21.6084H206.007V22.5752ZM216.791 13.8594C216.791 14.6064 216.781 15.2583 216.762 15.8149C216.747 16.3716 216.706 17.021 216.637 17.7632C216.569 18.5054 216.459 19.3135 216.308 20.1875L215.136 20.0703C215.297 19.2451 215.417 18.4688 215.495 17.7412C215.573 17.0088 215.619 16.3643 215.634 15.8076C215.653 15.2461 215.663 14.5967 215.663 13.8594V13.5078H207.812V12.5557H216.791V13.8594ZM218.388 22.2676H206.522V21.3154H218.388V22.2676ZM229.713 20.7002H228.571V11.1787H229.713V20.7002ZM230.123 23.9082H221.305V19.7334H222.448V22.9414H230.123V23.9082ZM222.682 12.0869C223.327 12.0869 223.908 12.2236 224.425 12.4971C224.948 12.7656 225.355 13.144 225.648 13.6323C225.946 14.1157 226.095 14.665 226.095 15.2803C226.095 15.9053 225.946 16.4619 225.648 16.9502C225.355 17.4336 224.948 17.812 224.425 18.0854C223.908 18.354 223.327 18.4883 222.682 18.4883C222.037 18.4883 221.454 18.354 220.932 18.0854C220.414 17.812 220.006 17.4336 219.708 16.9502C219.415 16.4619 219.269 15.9053 219.269 15.2803C219.269 14.665 219.415 14.1157 219.708 13.6323C220.006 13.144 220.414 12.7656 220.932 12.4971C221.454 12.2236 222.037 12.0869 222.682 12.0869ZM222.682 13.0977C222.247 13.0977 221.854 13.1904 221.503 13.376C221.156 13.5615 220.883 13.8203 220.683 14.1523C220.487 14.4844 220.392 14.8604 220.397 15.2803C220.392 15.7051 220.487 16.0859 220.683 16.4229C220.883 16.7549 221.156 17.0137 221.503 17.1992C221.854 17.3848 222.247 17.4775 222.682 17.4775C223.107 17.4775 223.493 17.3848 223.839 17.1992C224.191 17.0137 224.467 16.7549 224.667 16.4229C224.867 16.0859 224.967 15.7051 224.967 15.2803C224.967 14.8652 224.867 14.4917 224.667 14.1597C224.467 13.8276 224.191 13.5688 223.839 13.3833C223.493 13.1929 223.107 13.0977 222.682 13.0977Z" fill="black"/>
<ellipse cx="30" cy="17" rx="10" ry="8" fill="#181600"/>
<path d="M22.635 28.1183L24.431 21.0456L28.995 24.5407L22.635 28.1183Z" fill="#181600"/>
</svg>
