<svg width="12" height="14" viewBox="0 0 12 14" fill="none" xmlns="http://www.w3.org/2000/svg">
<path d="M10.51 5.38009C12.51 8.20009 10.98 11.4301 10.24 12.6901C10.1315 12.8663 9.98577 13.0167 9.81303 13.1307C9.64029 13.2447 9.44472 13.3196 9.24001 13.3501C7.79001 13.6001 4.18001 13.8801 2.24001 11.0601C0.330012 8.40009 0.410012 3.72009 0.580012 1.49009C0.586715 1.32395 0.63278 1.16178 0.714415 1.01692C0.796051 0.87206 0.910921 0.74866 1.04957 0.656877C1.18822 0.565094 1.34669 0.507551 1.51193 0.488987C1.67717 0.470422 1.84445 0.491366 2.00001 0.550094C4.15001 1.17009 8.63001 2.72009 10.51 5.38009Z" stroke="#428238" stroke-linecap="round" stroke-linejoin="round"/>
<path d="M3.77002 4.4502C6.06055 7.14946 8.07087 10.0745 9.77002 13.1802" stroke="#428238" stroke-linecap="round" stroke-linejoin="round"/>
</svg>
