<svg width="210" height="70" viewBox="0 0 210 70" fill="none" xmlns="http://www.w3.org/2000/svg">
<path d="M32.45 28.5C30.8 15.45 39.75 16.95 39.75 10.45C39.75 7.85 38.55 5.85 35.75 5.85C32.95 5.85 31 7.75 30.75 11.75H24.5C25.05 2.9 31 0.0499978 35.95 0.299998C41.85 0.549997 46.4 3.95 46.4 9.95C46.4 20.8 36.6 17.15 38.1 28.5H32.45ZM31.6 39.7V32.6H38.9V39.7H31.6Z" fill="black"/>
<path d="M158.85 29.4L157.8 8.95L157.55 2H164.95L164.7 8.95L163.65 29.4H158.85ZM157.65 40.7V33.6H164.95V40.7H157.65Z" fill="black"/>
<path d="M15.72 69.56C8.2 69.56 2.16 64.2 2.16 54.32C2.16 44.56 8.44 38.84 15.92 38.84C19.76 38.84 22.68 40.6 24.6 42.64L21.48 46.4C20 44.96 18.28 43.92 16.04 43.92C11.56 43.92 8.2 47.76 8.2 54.12C8.2 60.56 11.24 64.44 15.92 64.44C18.48 64.44 20.44 63.24 22.04 61.52L25.16 65.2C22.72 68.12 19.6 69.56 15.72 69.56ZM35.7266 69.56C27.8866 69.56 22.4866 63.68 22.4866 54.08C22.4866 44.44 27.8866 38.84 35.7266 38.84C43.5666 38.84 48.9666 44.48 48.9666 54.08C48.9666 63.68 43.5666 69.56 35.7266 69.56ZM35.7266 64.44C40.1266 64.44 42.9266 60.36 42.9266 54.08C42.9266 47.64 40.2466 43.92 35.7266 43.92C31.2066 43.92 28.5266 47.64 28.5266 54.08C28.5266 60.36 31.3266 64.44 35.7266 64.44ZM52.7078 39.4L56.6278 53.8C57.5478 57.16 58.1478 60 59.1078 63.36H59.3078C60.2278 60 60.9078 57.16 61.8278 53.8L65.6678 39.4H71.6678L62.5878 69H55.5478L46.5078 39.4H52.7078ZM88.8344 39.4V44.32H76.5944V51.16H86.9944V56.12H76.5944V64.04H89.2744V69H70.6744V39.4H88.8344ZM138.668 39.4V64.04H150.668V69H132.748V39.4H138.668ZM161.67 69.56C153.83 69.56 148.43 63.68 148.43 54.08C148.43 44.44 153.83 38.84 161.67 38.84C169.51 38.84 174.91 44.48 174.91 54.08C174.91 63.68 169.51 69.56 161.67 69.56ZM161.67 64.44C166.07 64.44 168.87 60.36 168.87 54.08C168.87 47.64 166.19 43.92 161.67 43.92C157.15 43.92 154.47 47.64 154.47 54.08C154.47 60.36 157.27 64.44 161.67 64.44ZM179.412 39.4L181.772 53.84C182.212 57.04 182.692 60.08 183.132 63.28H183.292C183.892 60.08 184.532 56.92 185.172 53.84L188.612 39.4H193.652L197.092 53.84C197.732 56.88 198.332 60.08 198.972 63.28H199.172C199.612 60.08 200.052 56.92 200.492 53.84L202.812 39.4H208.452L202.972 69H195.612L192.292 54.36C191.812 51.96 191.372 49.76 191.012 47.52H190.852C190.412 49.76 190.052 51.96 189.572 54.36L186.332 69H179.092L173.372 39.4H179.412Z" fill="black"/>
<path d="M100.924 57.8H96.8038V69H90.8838V39.4H101.204C107.444 39.4 112.324 41.52 112.324 48.36C112.324 52.88 110.084 55.56 106.684 56.88L113.604 69H107.004L100.924 57.8ZM100.644 53.12C104.484 53.12 106.524 51.56 106.524 48.36C106.524 45.16 104.484 44.08 100.644 44.08H96.8038V53.12H100.644ZM131.989 39.4V44.32H119.669V52.04H130.189V57H119.669V69H113.749V39.4H131.989Z" fill="#FF8D1D"/>
<path d="M15.72 69.56C8.2 69.56 2.16 64.2 2.16 54.32C2.16 44.56 8.44 38.84 15.92 38.84C19.76 38.84 22.68 40.6 24.6 42.64L21.48 46.4C20 44.96 18.28 43.92 16.04 43.92C11.56 43.92 8.2 47.76 8.2 54.12C8.2 60.56 11.24 64.44 15.92 64.44C18.48 64.44 20.44 63.24 22.04 61.52L25.16 65.2C22.72 68.12 19.6 69.56 15.72 69.56ZM35.7266 69.56C27.8866 69.56 22.4866 63.68 22.4866 54.08C22.4866 44.44 27.8866 38.84 35.7266 38.84C43.5666 38.84 48.9666 44.48 48.9666 54.08C48.9666 63.68 43.5666 69.56 35.7266 69.56ZM35.7266 64.44C40.1266 64.44 42.9266 60.36 42.9266 54.08C42.9266 47.64 40.2466 43.92 35.7266 43.92C31.2066 43.92 28.5266 47.64 28.5266 54.08C28.5266 60.36 31.3266 64.44 35.7266 64.44ZM52.7078 39.4L56.6278 53.8C57.5478 57.16 58.1478 60 59.1078 63.36H59.3078C60.2278 60 60.9078 57.16 61.8278 53.8L65.6678 39.4H71.6678L62.5878 69H55.5478L46.5078 39.4H52.7078ZM88.8344 39.4V44.32H76.5944V51.16H86.9944V56.12H76.5944V64.04H89.2744V69H70.6744V39.4H88.8344ZM138.668 39.4V64.04H150.668V69H132.748V39.4H138.668ZM161.67 69.56C153.83 69.56 148.43 63.68 148.43 54.08C148.43 44.44 153.83 38.84 161.67 38.84C169.51 38.84 174.91 44.48 174.91 54.08C174.91 63.68 169.51 69.56 161.67 69.56ZM161.67 64.44C166.07 64.44 168.87 60.36 168.87 54.08C168.87 47.64 166.19 43.92 161.67 43.92C157.15 43.92 154.47 47.64 154.47 54.08C154.47 60.36 157.27 64.44 161.67 64.44ZM179.412 39.4L181.772 53.84C182.212 57.04 182.692 60.08 183.132 63.28H183.292C183.892 60.08 184.532 56.92 185.172 53.84L188.612 39.4H193.652L197.092 53.84C197.732 56.88 198.332 60.08 198.972 63.28H199.172C199.612 60.08 200.052 56.92 200.492 53.84L202.812 39.4H208.452L202.972 69H195.612L192.292 54.36C191.812 51.96 191.372 49.76 191.012 47.52H190.852C190.412 49.76 190.052 51.96 189.572 54.36L186.332 69H179.092L173.372 39.4H179.412Z" fill="black"/>
<path d="M100.924 57.8H96.8038V69H90.8838V39.4H101.204C107.444 39.4 112.324 41.52 112.324 48.36C112.324 52.88 110.084 55.56 106.684 56.88L113.604 69H107.004L100.924 57.8ZM100.644 53.12C104.484 53.12 106.524 51.56 106.524 48.36C106.524 45.16 104.484 44.08 100.644 44.08H96.8038V53.12H100.644ZM131.989 39.4V44.32H119.669V52.04H130.189V57H119.669V69H113.749V39.4H131.989Z" fill="#FF8D1D"/>
<ellipse cx="32" cy="51" rx="1" ry="2" fill="black"/>
<ellipse cx="32" cy="51" rx="1" ry="2" fill="black"/>
<ellipse cx="39" cy="51" rx="1" ry="2" fill="black"/>
<ellipse cx="39" cy="51" rx="1" ry="2" fill="black"/>
<ellipse cx="158" cy="51.5" rx="1" ry="1.5" fill="black"/>
<ellipse cx="158" cy="51.5" rx="1" ry="1.5" fill="black"/>
<ellipse cx="165" cy="51.5" rx="1" ry="1.5" fill="black"/>
<ellipse cx="165" cy="51.5" rx="1" ry="1.5" fill="black"/>
<path d="M31 58V58C33.5663 55.7188 37.4337 55.7188 40 58V58" stroke="black" stroke-linecap="round"/>
<path d="M31 58V58C33.5663 55.7188 37.4337 55.7188 40 58V58" stroke="black" stroke-linecap="round"/>
<ellipse cx="161.5" cy="57.5" rx="4.5" ry="2.5" fill="black"/>
<ellipse cx="161.5" cy="57.5" rx="4.5" ry="2.5" fill="black"/>
<circle cx="158.5" cy="51.5" r="0.5" fill="white"/>
<circle cx="158.5" cy="51.5" r="0.5" fill="white"/>
<circle cx="165.5" cy="51.5" r="0.5" fill="white"/>
<circle cx="165.5" cy="51.5" r="0.5" fill="white"/>
<circle cx="31.5" cy="49.5" r="0.5" fill="white"/>
<circle cx="31.5" cy="49.5" r="0.5" fill="white"/>
<circle cx="38.5" cy="49.5" r="0.5" fill="white"/>
<circle cx="38.5" cy="49.5" r="0.5" fill="white"/>
</svg>
