<svg width="20" height="20" viewBox="0 0 20 20" fill="none" xmlns="http://www.w3.org/2000/svg">
<g clip-path="url(#clip0_2044_2785)">
<path d="M14.9996 5.00014C14.8193 3.81834 14.2217 2.74023 13.3149 1.96123C12.4081 1.18223 11.2522 0.753906 10.0567 0.753906C8.86124 0.753906 7.70534 1.18223 6.79854 1.96123C5.89174 2.74023 5.29406 3.81834 5.11384 5.00014C3.9772 5.00014 2.88711 5.45167 2.08338 6.2554C1.27965 7.05912 0.828125 8.14921 0.828125 9.28585C0.828125 10.4225 1.27965 11.5126 2.08338 12.3163C2.88711 13.12 3.9772 13.5716 5.11384 13.5716C5.64774 13.5769 6.17727 13.4749 6.67098 13.2716C7.06961 13.8093 7.58866 14.2462 8.18653 14.5472C8.7844 14.8482 9.44446 15.005 10.1138 15.005C10.7832 15.005 11.4433 14.8482 12.0411 14.5472C12.639 14.2462 13.1581 13.8093 13.5567 13.2716C14.0504 13.4749 14.5799 13.5769 15.1138 13.5716C16.2505 13.5716 17.3406 13.12 18.1443 12.3163C18.948 11.5126 19.3996 10.4225 19.3996 9.28585C19.3996 8.14921 18.948 7.05912 18.1443 6.2554C17.3406 5.45167 16.2505 5.00014 15.1138 5.00014H14.9996Z" stroke="#875100" stroke-linecap="round" stroke-linejoin="round"/>
<path d="M7.85645 9.28613L9.9993 11.429V19.2861" stroke="#875100" stroke-linecap="round" stroke-linejoin="round"/>
<path d="M10 11.429L12.1429 9.28613" stroke="#875100" stroke-linecap="round" stroke-linejoin="round"/>
</g>
<defs>
<clipPath id="clip0_2044_2785">
<rect width="20" height="20" fill="white"/>
</clipPath>
</defs>
</svg>
