<svg width="20" height="20" viewBox="0 0 20 20" fill="none" xmlns="http://www.w3.org/2000/svg">
<path d="M15 4.9999C14.8198 3.8181 14.2221 2.73998 13.3153 1.96098C12.4085 1.18198 11.2526 0.753662 10.0572 0.753662C8.86172 0.753662 7.70583 1.18198 6.79903 1.96098C5.89223 2.73998 5.29455 3.8181 5.11433 4.9999C3.97769 4.9999 2.8876 5.45143 2.08387 6.25515C1.28014 7.05888 0.828613 8.14897 0.828613 9.28561C0.828613 10.4223 1.28014 11.5123 2.08387 12.3161C2.8876 13.1198 3.97769 13.5713 5.11433 13.5713C5.64823 13.5766 6.17776 13.4746 6.67147 13.2713C7.0701 13.8091 7.58915 14.2459 8.18702 14.547C8.78489 14.848 9.44495 15.0048 10.1143 15.0048C10.7837 15.0048 11.4438 14.848 12.0416 14.547C12.6395 14.2459 13.1586 13.8091 13.5572 13.2713C14.0509 13.4746 14.5804 13.5766 15.1143 13.5713C16.251 13.5713 17.3411 13.1198 18.1448 12.3161C18.9485 11.5123 19.4 10.4223 19.4 9.28561C19.4 8.14897 18.9485 7.05888 18.1448 6.25515C17.3411 5.45143 16.251 4.9999 15.1143 4.9999H15Z" stroke="#875100" stroke-linecap="round" stroke-linejoin="round"/>
<path d="M7.85718 9.28564L10 11.4285V19.2856" stroke="#875100" stroke-linecap="round" stroke-linejoin="round"/>
<path d="M10 11.4285L12.1429 9.28564" stroke="#875100" stroke-linecap="round" stroke-linejoin="round"/>
</svg>
