<svg width="309" height="47" viewBox="0 0 309 47" fill="none" xmlns="http://www.w3.org/2000/svg">
<rect width="309" height="47" rx="10" fill="#6DB030"/>
<path d="M111.146 25.207C111.789 25.1986 112.39 25.1689 112.948 25.1182C113.511 25.0632 114.087 24.9743 114.675 24.8516L114.84 25.8799C114.146 26.0238 113.475 26.1211 112.828 26.1719C112.184 26.2227 111.471 26.248 110.688 26.248H109.939V18.8848H111.146V25.207ZM119.194 29.0791H118.052V17.7041H119.194V29.0791ZM116.757 28.5205H115.614V22.4395H113.126V21.4492H115.614V17.958H116.757V28.5205ZM129.034 29.1045H127.828V17.7041H129.034V29.1045ZM122.953 18.5547C123.516 18.5547 124.02 18.7197 124.464 19.0498C124.908 19.3757 125.255 19.8411 125.505 20.4463C125.759 21.0472 125.886 21.7454 125.886 22.541C125.886 23.3408 125.759 24.0433 125.505 24.6484C125.255 25.2536 124.908 25.7212 124.464 26.0513C124.02 26.3771 123.516 26.54 122.953 26.54C122.382 26.54 121.874 26.3771 121.43 26.0513C120.985 25.7212 120.636 25.2557 120.382 24.6548C120.133 24.0496 120.008 23.3451 120.008 22.541C120.008 21.7412 120.133 21.0409 120.382 20.4399C120.636 19.8348 120.985 19.3693 121.43 19.0435C121.874 18.7176 122.382 18.5547 122.953 18.5547ZM122.953 19.6338C122.602 19.6338 122.291 19.7523 122.02 19.9893C121.753 20.2262 121.546 20.5648 121.398 21.0049C121.25 21.4408 121.176 21.9528 121.176 22.541C121.176 23.1335 121.25 23.6497 121.398 24.0898C121.546 24.5299 121.753 24.8685 122.02 25.1055C122.291 25.3424 122.602 25.4609 122.953 25.4609C123.3 25.4609 123.607 25.3424 123.874 25.1055C124.14 24.8685 124.348 24.5299 124.496 24.0898C124.644 23.6497 124.718 23.1335 124.718 22.541C124.718 21.9528 124.644 21.4408 124.496 21.0049C124.348 20.5648 124.14 20.2262 123.874 19.9893C123.607 19.7523 123.3 19.6338 122.953 19.6338ZM139.293 29.1045H138.1V22.8457H135.586V26.2861H130.254V18.5801H131.473V21.4873H134.405V18.5801H135.586V21.8555H138.1V17.7041H139.293V29.1045ZM134.405 25.2959V22.4395H131.473V25.2959H134.405ZM150.415 27.7207H140.005V26.7051H144.588V24.7119H141.275V21.0938H147.952V19.4941H141.249V18.5039H149.146V22.0586H142.468V23.7217H149.412V24.7119H145.781V26.7051H150.415V27.7207ZM162.11 29.0791H160.967V17.7041H162.11V29.0791ZM159.786 28.5205H158.644V24.6484H156.701V23.6582H158.644V21.8047H156.885C156.306 23.8275 155.004 25.444 152.982 26.6543L152.271 25.791C153.456 25.0885 154.355 24.2633 154.968 23.3154C155.586 22.3675 155.948 21.2969 156.054 20.1035H152.829V19.1133H157.247C157.247 19.7057 157.201 20.2728 157.108 20.8145H158.644V17.9961H159.786V28.5205ZM172.927 24.3438H162.53V23.3535H167.113V21.6904H168.306V23.3535H172.927V24.3438ZM168.319 18.3643C168.319 18.8382 168.496 19.2868 168.852 19.71C169.207 20.1331 169.688 20.4907 170.293 20.7827C170.898 21.0747 171.564 21.2673 172.292 21.3604L171.823 22.3125C170.904 22.1686 170.075 21.883 169.334 21.4556C168.598 21.0282 168.054 20.5076 167.703 19.894C167.347 20.5119 166.799 21.0345 166.059 21.4619C165.323 21.8851 164.493 22.1686 163.571 22.3125L163.126 21.3604C163.846 21.2673 164.508 21.0747 165.113 20.7827C165.722 20.4907 166.205 20.1331 166.56 19.71C166.916 19.2826 167.096 18.834 167.1 18.3643V17.8818H168.319V18.3643ZM171.632 29.0791H170.413V26.2988H163.685V25.3467H171.632V29.0791ZM181.586 22.3125H183.414V23.3154H181.586V29.0791H180.393V17.7041H181.586V22.3125ZM179.403 20.4717H172.661V19.4814H175.467V17.8564H176.673V19.4814H179.403V20.4717ZM176.076 21.3096C176.614 21.3096 177.096 21.4217 177.524 21.646C177.951 21.8703 178.288 22.1834 178.533 22.5854C178.778 22.9875 178.903 23.4424 178.908 23.9502C178.903 24.4622 178.778 24.9193 178.533 25.3213C178.288 25.7233 177.951 26.0365 177.524 26.2607C177.096 26.485 176.614 26.5993 176.076 26.6035C175.535 26.5993 175.048 26.485 174.616 26.2607C174.189 26.0365 173.853 25.7233 173.607 25.3213C173.366 24.9193 173.245 24.4622 173.245 23.9502C173.245 23.4424 173.366 22.9875 173.607 22.5854C173.853 22.1834 174.189 21.8703 174.616 21.646C175.048 21.4217 175.535 21.3096 176.076 21.3096ZM176.076 22.2998C175.759 22.2998 175.471 22.3696 175.213 22.5093C174.955 22.6489 174.754 22.8436 174.61 23.0933C174.466 23.3429 174.396 23.6286 174.401 23.9502C174.396 24.276 174.466 24.5638 174.61 24.8135C174.754 25.0632 174.953 25.2557 175.207 25.3911C175.465 25.5265 175.755 25.5921 176.076 25.5879C176.394 25.5921 176.679 25.5265 176.933 25.3911C177.192 25.2557 177.393 25.0632 177.536 24.8135C177.68 24.5638 177.752 24.276 177.752 23.9502C177.752 23.6286 177.68 23.3429 177.536 23.0933C177.393 22.8436 177.192 22.6489 176.933 22.5093C176.679 22.3696 176.394 22.2998 176.076 22.2998ZM192.378 29.0791H191.159V17.7041H192.378V29.0791ZM188.989 18.9229C188.989 20.6833 188.568 22.249 187.725 23.6201C186.888 24.987 185.535 26.1169 183.669 27.0098L183.034 26.0322C184.528 25.3213 185.66 24.4559 186.43 23.436C187.205 22.4162 187.651 21.2334 187.77 19.8877H183.58V18.9229H188.989Z" fill="white"/>
</svg>
