<svg width="43" height="43" viewBox="0 0 43 43" fill="none" xmlns="http://www.w3.org/2000/svg">
<g clip-path="url(#clip0_2543_5354)">
<path d="M1.53613 26.1072H7.67899C9.71547 26.1072 11.6685 26.9162 13.1086 28.3562C14.5486 29.7962 15.3576 31.7493 15.3576 33.7857" stroke="#000001" stroke-width="2" stroke-linecap="round" stroke-linejoin="round"/>
<path d="M6.14328 33.7856H21.5004C23.1296 33.7856 24.6921 34.4328 25.8441 35.5848C26.9961 36.7369 27.6433 38.2993 27.6433 39.9285C27.6433 40.3358 27.4815 40.7264 27.1935 41.0144C26.9055 41.3024 26.5149 41.4642 26.1076 41.4642H1.53613" stroke="#000001" stroke-width="2" stroke-linecap="round" stroke-linejoin="round"/>
<path d="M26.8752 26.1073L14.5894 14.743C7.89373 8.01655 17.6609 -5.00631 26.8752 5.52869C36.0894 -4.9756 45.9487 8.04726 39.1609 14.743L26.8752 26.1073Z" stroke="#000001" stroke-width="2" stroke-linecap="round" stroke-linejoin="round"/>
</g>
<defs>
<clipPath id="clip0_2543_5354">
<rect width="43" height="43" fill="white"/>
</clipPath>
</defs>
</svg>
