<svg width="43" height="43" viewBox="0 0 43 43" fill="none" xmlns="http://www.w3.org/2000/svg">
<path d="M29.1783 4.60718H33.7854C34.6 4.60718 35.3813 4.93077 35.9573 5.50678C36.5333 6.08278 36.8569 6.86401 36.8569 7.67861V38.3929C36.8569 39.2075 36.5333 39.9887 35.9573 40.5647C35.3813 41.1407 34.6 41.4643 33.7854 41.4643H9.21401C8.39941 41.4643 7.61818 41.1407 7.04218 40.5647C6.46617 39.9887 6.14258 39.2075 6.14258 38.3929V7.67861C6.14258 6.86401 6.46617 6.08278 7.04218 5.50678C7.61818 4.93077 8.39941 4.60718 9.21401 4.60718H13.8211" stroke="#000001" stroke-width="2" stroke-linecap="round" stroke-linejoin="round"/>
<path d="M26.107 1.53564H16.8927C15.1964 1.53564 13.8213 2.91077 13.8213 4.60707V6.14279C13.8213 7.83909 15.1964 9.21422 16.8927 9.21422H26.107C27.8033 9.21422 29.1784 7.83909 29.1784 6.14279V4.60707C29.1784 2.91077 27.8033 1.53564 26.107 1.53564Z" stroke="#000001" stroke-width="2" stroke-linecap="round" stroke-linejoin="round"/>
<path d="M13.8213 26.107L19.9641 30.7142L27.6427 18.4285" stroke="#000001" stroke-width="2" stroke-linecap="round" stroke-linejoin="round"/>
</svg>
