<svg width="38" height="38" viewBox="0 0 38 38" fill="none" xmlns="http://www.w3.org/2000/svg">
<g clip-path="url(#clip0_2543_5347)">
<path d="M19 23.0715V36.643" stroke="#000001" stroke-width="2" stroke-linecap="round" stroke-linejoin="round"/>
<path d="M12.2148 36.6428H25.7863" stroke="#000001" stroke-width="2" stroke-linecap="round" stroke-linejoin="round"/>
<path d="M9.50028 14.9287C7.34066 14.9287 5.26949 14.0708 3.74241 12.5437C2.21533 11.0166 1.35742 8.94544 1.35742 6.78582V4.07153H10.8574V14.9287H9.50028Z" stroke="#000001" stroke-width="2" stroke-linecap="round" stroke-linejoin="round"/>
<path d="M28.5007 14.9287C30.6603 14.9287 32.7315 14.0708 34.2586 12.5437C35.7856 11.0166 36.6436 8.94544 36.6436 6.78582V4.07153H27.1436V14.9287H28.5007Z" stroke="#000001" stroke-width="2" stroke-linecap="round" stroke-linejoin="round"/>
<path d="M27.1431 14.9286C27.1431 17.0882 26.2852 19.1594 24.7582 20.6865C23.2311 22.2136 21.1599 23.0715 19.0003 23.0715C16.8407 23.0715 14.7695 22.2136 13.2424 20.6865C11.7153 19.1594 10.8574 17.0882 10.8574 14.9286V1.35718H27.1431V14.9286Z" stroke="#000001" stroke-width="2" stroke-linecap="round" stroke-linejoin="round"/>
</g>
<defs>
<clipPath id="clip0_2543_5347">
<rect width="38" height="38" fill="white"/>
</clipPath>
</defs>
</svg>
