<svg width="47" height="47" viewBox="0 0 25 26" fill="none" xmlns="http://www.w3.org/2000/svg">
<path fill-rule="evenodd" clip-rule="evenodd" d="M20.6321 21.2358C17.1175 24.7508 11.9132 25.5102 7.65438 23.5406C7.02566 23.2875 6.51021 23.0829 6.02018 23.0829C4.65526 23.091 2.95634 24.4144 2.07336 23.5325C1.19039 22.6494 2.51485 20.9492 2.51485 19.576C2.51485 19.0859 2.31838 18.5797 2.06527 17.9497C0.0947553 13.6915 0.855225 8.48556 4.3698 4.97176C8.85634 0.483566 16.1455 0.483566 20.6321 4.9706C25.1267 9.46573 25.1186 16.7488 20.6321 21.2358Z" stroke="black" stroke-width="1.5" stroke-linecap="round" stroke-linejoin="round"/>
<path d="M17.2167 13.2055H17.2275" stroke="black" stroke-width="2" stroke-linecap="round" stroke-linejoin="round"/>
<path d="M12.4051 13.3095H12.4159" stroke="black" stroke-width="2" stroke-linecap="round" stroke-linejoin="round"/>
<path d="M7.5946 13.2055H7.6054" stroke="black" stroke-width="2" stroke-linecap="round" stroke-linejoin="round"/>
</svg>
