<svg width="30" height="15" viewBox="0 0 38 26" fill="none" xmlns="http://www.w3.org/2000/svg">
<path d="M12.4409 1.08698C3.49569 2.01683 1.0869 8.87192 1.00703 12.2137C0.707529 20.9938 10.052 24.2942 14.9638 24.1073C18.8932 23.9579 24.7874 21.1806 27.2433 19.8107C28.4413 20.7863 31.5619 23.1905 33.406 22.072C34.4986 21.4094 34.4211 20.246 33.9875 19.0177C33.1049 16.517 34.1173 15.2217 35.9534 13.3083C36.2855 12.9622 36.5 12.5367 36.5 12C36.5 11.5896 36.3606 11.2524 36.1259 10.9719C33.9022 8.31455 33.5431 8.39493 35.075 5.2869C35.1563 5.12187 35.1864 4.96046 35.1501 4.80362C34.4842 3.39101 33.9881 2.87325 31.9754 2.62417C29.9628 2.37509 27.6227 4.59604 26.7042 5.73766C25.6859 3.93183 19.0299 0.402051 12.4409 1.08698Z" stroke="black" stroke-width="2"/>
<ellipse cx="8.12822" cy="11.5483" rx="1.7371" ry="1.80583" fill="black"/>
<path d="M13.0402 4.01367C13.6791 4.0967 14.9331 4.82318 14.8372 7.06491C14.8042 7.83796 14.7013 8.39626 14.5562 8.80876C14.3024 9.53001 14.1871 10.6845 14.5061 11.3794C14.665 11.7256 14.786 12.1191 14.8372 12.5447C14.9245 13.2709 14.5153 14.0646 14.0418 14.6967C13.6469 15.2239 13.6974 16.0367 14.1034 16.5553C14.5 17.062 14.8372 17.7217 14.8372 18.4603C14.8372 19.8054 13.5593 20.9304 12.9204 21.3248" stroke="black" stroke-width="1.5"/>
<path d="M18.2871 4.62378C18.8462 4.74832 19.9643 5.42084 19.9643 7.11458C19.9643 7.73822 19.8587 8.20653 19.7014 8.56177C19.4155 9.2075 19.3538 10.0692 19.6754 10.6979C19.8448 11.0288 19.9643 11.4447 19.9643 11.9717C19.9643 12.5157 19.8114 12.9943 19.6208 13.3797C19.3348 13.9579 19.3965 14.779 19.7213 15.3363C19.9475 15.7245 20.1215 16.2264 20.0841 16.8287C19.9883 18.373 19.0059 19.0912 18.5267 19.2573" stroke="black" stroke-width="1.5"/>
<path d="M23.0435 7.62524C23.7423 7.91584 25.0681 8.87065 24.7806 10.3651C24.6666 10.9572 24.5114 11.3636 24.3281 11.6656C23.976 12.2459 23.936 12.9943 24.3608 13.5237C24.7464 14.0042 25.0212 14.6307 24.8405 15.409C24.505 16.8537 23.6624 17.4639 23.2831 17.5885" stroke="black" stroke-width="1.5"/>
<path d="M29 9.25391L30.9843 9.0001" stroke="black" stroke-width="1.5" stroke-linecap="round"/>
<path d="M28.7935 15.3467L31 16" stroke="black" stroke-width="1.5" stroke-linecap="round"/>
<path d="M28.9136 12.3579H31.4294" stroke="black" stroke-width="1.5" stroke-linecap="round"/>
</svg>
