<svg width="27" height="27" viewBox="0 0 17 17" fill="none" xmlns="http://www.w3.org/2000/svg">
<path fill-rule="evenodd" clip-rule="evenodd" d="M5.80386 14.317C3.37808 13.3068 1.7952 10.9398 1.78818 8.31206C1.77326 5.48 3.58729 2.96181 6.27828 2.079C8.96927 1.19619 11.9225 2.15044 13.5881 4.44096C15.2537 6.73149 15.2512 9.83504 13.5819 12.1229L15.6219 14.1629C15.8291 14.3703 15.8291 14.7063 15.6219 14.9137C15.4145 15.1209 15.0785 15.1209 14.8711 14.9137L12.8948 12.9375C11.0247 14.7835 8.22964 15.3272 5.80386 14.317ZM10.4078 13.3699C12.4519 12.5217 13.7831 10.5251 13.7803 8.31206L13.7519 8.31206C13.7481 5.30852 11.3225 2.87026 8.31901 2.85081C6.10599 2.84794 4.10942 4.17921 3.26121 6.22323C2.413 8.26725 2.88039 10.621 4.44524 12.1858C6.01008 13.7507 8.36382 14.2181 10.4078 13.3699Z" fill="#FF8D1D"/>
</svg>
