<svg width="18" height="18" viewBox="0 0 18 18" fill="none" xmlns="http://www.w3.org/2000/svg">
<g clip-path="url(#clip0_2605_671)">
<path d="M8.99996 17.3572C13.6155 17.3572 17.3571 13.6155 17.3571 9.00003C17.3571 4.3845 13.6155 0.642883 8.99996 0.642883C4.38444 0.642883 0.642822 4.3845 0.642822 9.00003C0.642822 13.6155 4.38444 17.3572 8.99996 17.3572Z" stroke="#FF8D1D" stroke-width="0.8" stroke-linecap="round" stroke-linejoin="round"/>
<path d="M8.35711 11.5715C10.1323 11.5715 11.5714 10.1324 11.5714 8.35717C11.5714 6.58197 10.1323 5.14288 8.35711 5.14288C6.58191 5.14288 5.14282 6.58197 5.14282 8.35717C5.14282 10.1324 6.58191 11.5715 8.35711 11.5715Z" stroke="#FF8D1D" stroke-width="0.8" stroke-linecap="round" stroke-linejoin="round"/>
<path d="M12.8571 12.8572L10.6328 10.6329" stroke="#FF8D1D" stroke-width="0.8" stroke-linecap="round" stroke-linejoin="round"/>
</g>
<defs>
<clipPath id="clip0_2605_671">
<rect width="18" height="18" fill="white"/>
</clipPath>
</defs>
</svg>
