<svg width="179" height="179" viewBox="0 0 179 179" fill="none" xmlns="http://www.w3.org/2000/svg">
<path d="M67.125 89.5L82.0417 104.417L111.875 74.5833M156.625 89.5C156.625 98.315 154.889 107.044 151.515 115.188C148.142 123.332 143.198 130.731 136.965 136.965C130.731 143.198 123.332 148.142 115.188 151.515C107.044 154.889 98.315 156.625 89.5 156.625C80.685 156.625 71.9564 154.889 63.8124 151.515C55.6684 148.142 48.2686 143.198 42.0355 136.965C35.8023 130.731 30.8579 123.332 27.4846 115.188C24.1112 107.044 22.375 98.315 22.375 89.5C22.375 71.6973 29.4471 54.6238 42.0355 42.0355C54.6238 29.4471 71.6973 22.375 89.5 22.375C107.303 22.375 124.376 29.4471 136.965 42.0355C149.553 54.6238 156.625 71.6973 156.625 89.5Z" stroke="#FF8D1D" stroke-width="10" stroke-linecap="round" stroke-linejoin="round"/>
</svg>
