<svg width="28" height="28" viewBox="0 0 28 28" fill="none" xmlns="http://www.w3.org/2000/svg">
<g clip-path="url(#clip0_2086_5288)">
<path d="M14 10V16" stroke="#BC0000" stroke-width="2" stroke-linecap="round" stroke-linejoin="round"/>
<path d="M14 23C14.5523 23 15 22.5523 15 22C15 21.4477 14.5523 21 14 21C13.4477 21 13 21.4477 13 22C13 22.5523 13.4477 23 14 23Z" stroke="#BC0000" stroke-width="2" stroke-linecap="round" stroke-linejoin="round"/>
<path d="M15.7798 2.10004C15.612 1.77244 15.357 1.49751 15.0429 1.30553C14.7289 1.11355 14.3679 1.01196 13.9998 1.01196C13.6317 1.01196 13.2708 1.11355 12.9567 1.30553C12.6426 1.49751 12.3876 1.77244 12.2198 2.10004L1.21981 24.1C1.06639 24.4045 0.993343 24.7431 1.00761 25.0838C1.02188 25.4244 1.12299 25.7557 1.30133 26.0463C1.47968 26.3368 1.72934 26.577 2.02661 26.7439C2.32387 26.9108 2.65888 26.999 2.99981 27H24.9998C25.3407 26.999 25.6757 26.9108 25.973 26.7439C26.2703 26.577 26.5199 26.3368 26.6983 26.0463C26.8766 25.7557 26.9777 25.4244 26.992 25.0838C27.0063 24.7431 26.9332 24.4045 26.7798 24.1L15.7798 2.10004Z" stroke="#BC0000" stroke-width="2" stroke-linecap="round" stroke-linejoin="round"/>
</g>
<defs>
<clipPath id="clip0_2086_5288">
<rect width="28" height="28" fill="white"/>
</clipPath>
</defs>
</svg>
