<svg width="33" height="33" viewBox="0 0 33 33" fill="none" xmlns="http://www.w3.org/2000/svg">
<path d="M22.3924 3.53571H25.9282C26.5533 3.53571 27.1529 3.78405 27.5949 4.2261C28.037 4.66815 28.2853 5.2677 28.2853 5.89285V29.4643C28.2853 30.0894 28.037 30.689 27.5949 31.131C27.1529 31.5731 26.5533 31.8214 25.9282 31.8214H7.07101C6.44586 31.8214 5.84631 31.5731 5.40426 31.131C4.96221 30.689 4.71387 30.0894 4.71387 29.4643V5.89285C4.71387 5.2677 4.96221 4.66815 5.40426 4.2261C5.84631 3.78405 6.44586 3.53571 7.07101 3.53571H10.6067" stroke="#000001" stroke-width="2" stroke-linecap="round" stroke-linejoin="round"/>
<path d="M20.035 1.17859H12.9636C11.6618 1.17859 10.6064 2.23392 10.6064 3.53573V4.7143C10.6064 6.01612 11.6618 7.07145 12.9636 7.07145H20.035C21.3368 7.07145 22.3922 6.01612 22.3922 4.7143V3.53573C22.3922 2.23392 21.3368 1.17859 20.035 1.17859Z" stroke="#000001" stroke-width="2" stroke-linecap="round" stroke-linejoin="round"/>
<path d="M10.6064 12.9643H22.3922" stroke="#000001" stroke-width="2" stroke-linecap="round" stroke-linejoin="round"/>
<path d="M11 18H22.7857" stroke="#000001" stroke-width="2" stroke-linecap="round" stroke-linejoin="round"/>
<path d="M10.6064 24.75H22.3922" stroke="#000001" stroke-width="2" stroke-linecap="round" stroke-linejoin="round"/>
</svg>
