<svg width="30" height="30" viewBox="0 0 30 30" fill="none" xmlns="http://www.w3.org/2000/svg">
<g clip-path="url(#clip0_2663_3376)">
<path d="M26.7856 6.42853H3.21415C2.03068 6.42853 1.07129 7.38792 1.07129 8.57138V15C1.07129 16.1834 2.03068 17.1428 3.21415 17.1428H26.7856C27.969 17.1428 28.9284 16.1834 28.9284 15V8.57138C28.9284 7.38792 27.969 6.42853 26.7856 6.42853Z" stroke="#000001" stroke-width="2" stroke-linecap="round" stroke-linejoin="round"/>
<path d="M26.7853 17.1428V26.7857C26.7853 27.354 26.5595 27.899 26.1577 28.3009C25.7558 28.7028 25.2108 28.9285 24.6424 28.9285H5.35672C4.7884 28.9285 4.24336 28.7028 3.8415 28.3009C3.43963 27.899 3.21387 27.354 3.21387 26.7857V17.1428" stroke="#000001" stroke-width="2" stroke-linecap="round" stroke-linejoin="round"/>
<path d="M15 6.42853V28.9285" stroke="#000001" stroke-width="2" stroke-linecap="round" stroke-linejoin="round"/>
<path d="M21.4284 1.07141L14.9999 6.42855L8.57129 1.07141" stroke="#000001" stroke-width="2" stroke-linecap="round" stroke-linejoin="round"/>
</g>
<defs>
<clipPath id="clip0_2663_3376">
<rect width="30" height="30" fill="white"/>
</clipPath>
</defs>
</svg>
