<svg width="50" height="50" viewBox="0 0 26 26" fill="none" xmlns="http://www.w3.org/2000/svg">
<path d="M13 7.66667V25M13 7.66667V5C13 4.47258 13.1564 3.95701 13.4494 3.51848C13.7424 3.07995 14.1589 2.73816 14.6462 2.53632C15.1334 2.33449 15.6696 2.28168 16.1869 2.38457C16.7042 2.48747 17.1793 2.74144 17.5523 3.11438C17.9252 3.48732 18.1792 3.96248 18.2821 4.47976C18.385 4.99704 18.3322 5.53322 18.1303 6.02049C17.9285 6.50776 17.5867 6.92424 17.1482 7.21725C16.7097 7.51027 16.1941 7.66667 15.6667 7.66667H13ZM13 7.66667V4.33333C13 3.67406 12.8045 3.0296 12.4382 2.48143C12.072 1.93327 11.5514 1.50603 10.9423 1.25374C10.3332 1.00144 9.66297 0.935433 9.01637 1.06405C8.36976 1.19267 7.77582 1.51014 7.30964 1.97631C6.84347 2.44249 6.526 3.03643 6.39738 3.68303C6.26876 4.32964 6.33478 4.99986 6.58707 5.60895C6.83936 6.21803 7.2666 6.73863 7.81477 7.1049C8.36293 7.47117 9.0074 7.66667 9.66667 7.66667H13ZM3.66667 13H22.3333M3.66667 13C2.95942 13 2.28115 12.719 1.78105 12.219C1.28095 11.7189 1 11.0406 1 10.3333C1 9.62609 1.28095 8.94781 1.78105 8.44772C2.28115 7.94762 2.95942 7.66667 3.66667 7.66667H22.3333C23.0406 7.66667 23.7189 7.94762 24.219 8.44772C24.7191 8.94781 25 9.62609 25 10.3333C25 11.0406 24.7191 11.7189 24.219 12.219C23.7189 12.719 23.0406 13 22.3333 13M3.66667 13V22.3333C3.66667 23.0406 3.94762 23.7189 4.44772 24.219C4.94781 24.7191 5.62609 25 6.33333 25H19.6667C20.3739 25 21.0522 24.7191 21.5523 24.219C22.0524 23.7189 22.3333 23.0406 22.3333 22.3333V13" stroke="#1D1D1F" stroke-width="1.5" stroke-linecap="round" stroke-linejoin="round"/>
</svg>
