<svg width="119" height="48" viewBox="0 0 119 48" fill="none" xmlns="http://www.w3.org/2000/svg">
<g filter="url(#filter0_d_955_3009)">
<path d="M10.4688 21.957C10.3711 21.2279 10.0716 20.6517 9.57031 20.2285C9.07552 19.8053 8.4375 19.5938 7.65625 19.5938C6.95964 19.5938 6.36068 19.7663 5.85938 20.1113C5.35807 20.4499 4.9707 20.9447 4.69727 21.5957C4.43034 22.2402 4.29688 23.0182 4.29688 23.9297C4.29688 24.8672 4.43034 25.6615 4.69727 26.3125C4.9707 26.957 5.35807 27.4453 5.85938 27.7773C6.36068 28.1029 6.95312 28.2656 7.63672 28.2656C8.39844 28.2656 9.02995 28.0703 9.53125 27.6797C10.0326 27.2891 10.3451 26.7487 10.4688 26.0586L13.8281 26.0781C13.7305 26.9505 13.4245 27.7773 12.9102 28.5586C12.3958 29.3398 11.6829 29.9746 10.7715 30.4629C9.86003 30.9512 8.79557 31.1953 7.57812 31.1953C6.28906 31.1953 5.13997 30.9089 4.13086 30.3359C3.12174 29.763 2.33073 28.9297 1.75781 27.8359C1.1849 26.7422 0.898438 25.4401 0.898438 23.9297C0.898438 22.4128 1.18815 21.1074 1.76758 20.0137C2.34701 18.9199 3.14128 18.0898 4.15039 17.5234C5.16602 16.9505 6.30859 16.6641 7.57812 16.6641C8.71745 16.6641 9.73633 16.8724 10.6348 17.2891C11.5332 17.7057 12.2591 18.3112 12.8125 19.1055C13.3724 19.8997 13.7109 20.8503 13.8281 21.957H10.4688ZM28.0234 23.9297C28.0234 25.4466 27.7305 26.752 27.1445 27.8457C26.5651 28.9395 25.7643 29.7728 24.7422 30.3457C23.7266 30.9121 22.5807 31.1953 21.3047 31.1953C20.0221 31.1953 18.873 30.9089 17.8574 30.3359C16.8418 29.763 16.041 28.9297 15.4551 27.8359C14.8757 26.7422 14.5859 25.4401 14.5859 23.9297C14.5859 22.4128 14.8757 21.1074 15.4551 20.0137C16.041 18.9199 16.8418 18.0898 17.8574 17.5234C18.873 16.9505 20.0221 16.6641 21.3047 16.6641C22.5807 16.6641 23.7266 16.9505 24.7422 17.5234C25.7643 18.0898 26.5651 18.9199 27.1445 20.0137C27.7305 21.1074 28.0234 22.4128 28.0234 23.9297ZM24.625 23.9297C24.625 23.0052 24.4915 22.2174 24.2246 21.5664C23.9642 20.9154 23.5833 20.4238 23.082 20.0918C22.5872 19.7598 21.9948 19.5938 21.3047 19.5938C20.6146 19.5938 20.0189 19.7598 19.5176 20.0918C19.0228 20.4238 18.6419 20.9154 18.375 21.5664C18.1146 22.2174 17.9844 23.0052 17.9844 23.9297C17.9844 24.8542 18.1146 25.6419 18.375 26.293C18.6419 26.944 19.0228 27.4355 19.5176 27.7676C20.0189 28.0996 20.6146 28.2656 21.3047 28.2656C21.9948 28.2656 22.5872 28.0996 23.082 27.7676C23.5833 27.4355 23.9642 26.944 24.2246 26.293C24.4915 25.6419 24.625 24.8542 24.625 23.9297ZM34.4453 27.2891H34.5625L37.7852 16.8594H41.4961L36.7109 31H32.2969L27.4922 16.8594H31.2227L34.4453 27.2891ZM42 16.8594H51.7852V19.5742H45.3203V22.5625H51.2773V25.2773H45.3203V28.2852H51.8047V31H42V16.8594ZM52.9141 16.8594H58.6953C59.75 16.8594 60.6615 17.0482 61.4297 17.4258C62.2044 17.8034 62.7969 18.347 63.207 19.0566C63.6237 19.7598 63.832 20.5898 63.832 21.5469C63.832 22.5104 63.6204 23.3372 63.1973 24.0273C62.7806 24.7174 62.1784 25.2415 61.3906 25.5996L64.3398 31H60.6875L58.0898 26.1367H56.2344V31H52.9141V16.8594ZM57.9922 23.4805C59.5938 23.4805 60.3945 22.8359 60.3945 21.5469C60.3945 20.8893 60.1895 20.3945 59.7793 20.0625C59.3757 19.724 58.7799 19.5547 57.9922 19.5547H56.2344V23.4805H57.9922ZM64.707 16.8594H74.2969V19.5742H68.0273V22.5625H73.6719V25.2773H68.0273V31H64.707V16.8594ZM75.0156 16.8594H78.3359V28.2852H84.2734V31H75.0156V16.8594ZM97.707 23.9297C97.707 25.4466 97.4141 26.752 96.8281 27.8457C96.2487 28.9395 95.4479 29.7728 94.4258 30.3457C93.4102 30.9121 92.2643 31.1953 90.9883 31.1953C89.7057 31.1953 88.5566 30.9089 87.541 30.3359C86.5254 29.763 85.7246 28.9297 85.1387 27.8359C84.5592 26.7422 84.2695 25.4401 84.2695 23.9297C84.2695 22.4128 84.5592 21.1074 85.1387 20.0137C85.7246 18.9199 86.5254 18.0898 87.541 17.5234C88.5566 16.9505 89.7057 16.6641 90.9883 16.6641C92.2643 16.6641 93.4102 16.9505 94.4258 17.5234C95.4479 18.0898 96.2487 18.9199 96.8281 20.0137C97.4141 21.1074 97.707 22.4128 97.707 23.9297ZM94.3086 23.9297C94.3086 23.0052 94.1751 22.2174 93.9082 21.5664C93.6478 20.9154 93.2669 20.4238 92.7656 20.0918C92.2708 19.7598 91.6784 19.5938 90.9883 19.5938C90.2982 19.5938 89.7025 19.7598 89.2012 20.0918C88.7064 20.4238 88.3255 20.9154 88.0586 21.5664C87.7982 22.2174 87.668 23.0052 87.668 23.9297C87.668 24.8542 87.7982 25.6419 88.0586 26.293C88.3255 26.944 88.7064 27.4355 89.2012 27.7676C89.7025 28.0996 90.2982 28.2656 90.9883 28.2656C91.6784 28.2656 92.2708 28.0996 92.7656 27.7676C93.2669 27.4355 93.6478 26.944 93.9082 26.293C94.1751 25.6419 94.3086 24.8542 94.3086 23.9297ZM97.2539 16.8594H100.926L103.094 26.2344H103.211L105.672 16.8594H108.699L111.18 26.2539H111.277L113.465 16.8594H117.137L113.035 31H109.832L107.254 22.2891H107.137L104.559 31H101.336L97.2539 16.8594Z" fill="#FF8D1D"/>
</g>
<path d="M7.59766 10.8301H6.66016V2.08008H7.59766V10.8301ZM4.99023 3.01758C4.99023 4.37174 4.66634 5.57617 4.01855 6.63086C3.37402 7.68229 2.33398 8.55143 0.898438 9.23828L0.410156 8.48633C1.55924 7.93945 2.43001 7.27376 3.02246 6.48926C3.61816 5.70475 3.96159 4.79492 4.05273 3.75977H0.830078V3.01758H4.99023ZM10.5867 2.48047C10.9643 2.47721 11.311 2.54395 11.6268 2.68066C11.9458 2.81738 12.2078 3.01107 12.4129 3.26172C12.6212 3.50911 12.7579 3.79557 12.823 4.12109H14.532V2.08008H15.4598V6.77734H14.532V4.88281H12.8279C12.7661 5.21484 12.631 5.50781 12.4227 5.76172C12.2176 6.01562 11.9555 6.21257 11.6365 6.35254C11.3208 6.49251 10.9708 6.5625 10.5867 6.5625C10.144 6.5625 9.7485 6.47624 9.4002 6.30371C9.05189 6.12793 8.78008 5.88542 8.58477 5.57617C8.38945 5.26367 8.2918 4.90885 8.2918 4.51172C8.2918 4.11784 8.38945 3.76628 8.58477 3.45703C8.78333 3.14779 9.05677 2.9069 9.40508 2.73438C9.75339 2.56185 10.1473 2.47721 10.5867 2.48047ZM10.5867 3.25195C10.3133 3.25195 10.0691 3.30566 9.8543 3.41309C9.64271 3.51725 9.47669 3.66536 9.35625 3.85742C9.23906 4.04622 9.18047 4.26432 9.18047 4.51172C9.18047 4.75911 9.23906 4.97884 9.35625 5.1709C9.47669 5.36296 9.64271 5.5127 9.8543 5.62012C10.0691 5.72754 10.3133 5.78125 10.5867 5.78125C10.8536 5.78125 11.0913 5.72754 11.2996 5.62012C11.5112 5.5127 11.6756 5.36296 11.7928 5.1709C11.9132 4.97884 11.9734 4.75911 11.9734 4.51172C11.9734 4.26432 11.9148 4.04622 11.7977 3.85742C11.6805 3.66536 11.5161 3.51725 11.3045 3.41309C11.0929 3.30566 10.8536 3.25195 10.5867 3.25195ZM10.6746 8.21289H14.532V7.19727H15.4598V10.7227H9.75664V7.19727H10.6746V8.21289ZM14.532 9.96094V8.94531H10.6746V9.96094H14.532ZM21.6918 7.70508L22.3754 8.58887C22.613 8.361 22.7969 8.06803 22.9271 7.70996C23.0606 7.35189 23.1273 6.93685 23.1273 6.46484C23.1273 5.90495 23.0362 5.42643 22.8539 5.0293C22.6716 4.63216 22.4193 4.33105 22.0971 4.12598C21.7781 3.9209 21.4151 3.81836 21.0082 3.81836C20.598 3.81836 20.2318 3.9209 19.9096 4.12598C19.5873 4.33105 19.335 4.63216 19.1527 5.0293C18.9704 5.42643 18.8793 5.90495 18.8793 6.46484C18.8793 7.02474 18.9704 7.50326 19.1527 7.90039C19.335 8.29753 19.5873 8.59863 19.9096 8.80371C20.2318 9.00879 20.598 9.11133 21.0082 9.11133C21.2361 9.11133 21.4477 9.0804 21.643 9.01855L20.6371 7.70508H21.6918ZM24.1918 6.46484C24.1918 7.10286 24.0876 7.67253 23.8793 8.17383C23.6742 8.67188 23.3845 9.07878 23.0102 9.39453L23.9672 10.6348H22.8637L22.268 9.85352C21.8839 10.0163 21.4639 10.0977 21.0082 10.0977C20.393 10.0977 19.8428 9.95117 19.3578 9.6582C18.876 9.36198 18.4984 8.94043 18.225 8.39355C17.9516 7.84342 17.8148 7.20052 17.8148 6.46484C17.8148 5.72591 17.9516 5.08301 18.225 4.53613C18.4984 3.986 18.876 3.56445 19.3578 3.27148C19.8428 2.97852 20.393 2.83203 21.0082 2.83203C21.6169 2.83203 22.1622 2.97852 22.6439 3.27148C23.129 3.56445 23.5082 3.986 23.7816 4.53613C24.0551 5.08301 24.1918 5.72591 24.1918 6.46484ZM26.5754 10.0977C26.1132 10.0977 25.7079 10.013 25.3596 9.84375C25.0145 9.67448 24.7476 9.4401 24.5588 9.14062C24.3732 8.84115 24.2805 8.5026 24.2805 8.125C24.2805 7.85482 24.3358 7.61068 24.4465 7.39258C24.5572 7.17122 24.7085 6.9694 24.9006 6.78711C25.0959 6.60156 25.3433 6.40788 25.6428 6.20605C25.3856 5.89355 25.1919 5.61035 25.0617 5.35645C24.9315 5.09928 24.8664 4.82422 24.8664 4.53125C24.8664 4.20898 24.9396 3.9209 25.0861 3.66699C25.2359 3.40983 25.4458 3.20964 25.716 3.06641C25.9895 2.92318 26.302 2.85156 26.6535 2.85156C27.0083 2.85156 27.3176 2.92155 27.5812 3.06152C27.8482 3.2015 28.0533 3.38867 28.1965 3.62305C28.3397 3.85742 28.4113 4.11458 28.4113 4.39453C28.4113 4.7168 28.3316 5.00651 28.1721 5.26367C28.0158 5.52083 27.7831 5.76172 27.4738 5.98633L26.9855 6.34277L28.4016 8.03223C28.5969 7.65137 28.6945 7.23633 28.6945 6.78711H29.632C29.632 7.23958 29.5767 7.63184 29.466 7.96387C29.3586 8.29264 29.217 8.56934 29.0412 8.79395L30.052 10H28.8801L28.4016 9.43848C28.1704 9.65332 27.8921 9.81771 27.5666 9.93164C27.2443 10.0423 26.9139 10.0977 26.5754 10.0977ZM25.3254 8.0957C25.3254 8.29753 25.3775 8.4847 25.4816 8.65723C25.5891 8.82975 25.7372 8.96647 25.926 9.06738C26.118 9.16829 26.3378 9.21875 26.5852 9.21875C26.8 9.21875 27.0132 9.17969 27.2248 9.10156C27.4364 9.02018 27.6333 8.90462 27.8156 8.75488L26.2336 6.89941L26.0578 7.03125C25.8039 7.2168 25.6184 7.40723 25.5012 7.60254C25.384 7.7946 25.3254 7.95898 25.3254 8.0957ZM25.843 4.54102C25.843 4.70378 25.8918 4.87305 25.9895 5.04883C26.0871 5.22135 26.2303 5.42318 26.4191 5.6543L26.8488 5.35156C27.0572 5.21484 27.2118 5.0765 27.3127 4.93652C27.4136 4.79329 27.4641 4.6224 27.4641 4.42383C27.4641 4.3099 27.4299 4.19922 27.3615 4.0918C27.2964 3.98438 27.2036 3.89648 27.0832 3.82812C26.9628 3.75651 26.826 3.7207 26.673 3.7207C26.5168 3.7207 26.3752 3.75977 26.2482 3.83789C26.1213 3.91602 26.022 4.01855 25.9504 4.14551C25.8788 4.27246 25.843 4.4043 25.843 4.54102ZM29.4863 10L32.0254 2.92969H33.2656L35.8145 10H34.6719L34.0273 8.13477H31.2734L30.6289 10H29.4863ZM33.7148 7.23633L32.6699 4.21875H32.6211L31.5811 7.23633H33.7148ZM40.3082 4.30664C40.3082 4.83724 40.401 5.35645 40.5865 5.86426C40.7753 6.37207 41.039 6.82292 41.3775 7.2168C41.7161 7.61068 42.1051 7.9069 42.5445 8.10547L41.9781 8.84766C41.4866 8.60352 41.0569 8.24707 40.6891 7.77832C40.3245 7.30957 40.0445 6.77083 39.8492 6.16211C39.6539 6.80339 39.3691 7.37467 38.9947 7.87598C38.6204 8.37402 38.1858 8.75326 37.691 9.01367L37.1051 8.26172C37.5478 8.05013 37.94 7.73763 38.2818 7.32422C38.6269 6.90755 38.8938 6.43555 39.0826 5.9082C39.2747 5.3776 39.3707 4.84375 39.3707 4.30664V2.8125H40.3082V4.30664ZM44.4488 10.8496H43.5309V5.74219H41.5777V4.99023H43.5309V2.08008H44.4488V10.8496ZM52.2426 10.8496H51.3148V2.08008H52.2426V10.8496ZM46.4125 5.05859H48.766V2.8125H49.684V8.75H45.4848V2.8125H46.4125V5.05859ZM48.766 7.98828V5.79102H46.4125V7.98828H48.766ZM57.2824 3.32031C57.2824 3.78255 57.4305 4.23177 57.7268 4.66797C58.0262 5.10417 58.4217 5.47689 58.9133 5.78613C59.4048 6.09212 59.9289 6.29557 60.4855 6.39648L60.0559 7.16797C59.5904 7.06706 59.1444 6.90104 58.718 6.66992C58.2915 6.4388 57.9107 6.15723 57.5754 5.8252C57.2434 5.48991 56.9846 5.12044 56.799 4.7168C56.6102 5.11719 56.3498 5.48503 56.0178 5.82031C55.689 6.15234 55.3114 6.43392 54.885 6.66504C54.4585 6.89616 54.0109 7.0638 53.5422 7.16797L53.132 6.39648C53.6822 6.29232 54.2014 6.08724 54.6896 5.78125C55.1779 5.47201 55.5686 5.10091 55.8615 4.66797C56.1577 4.23177 56.3059 3.78255 56.3059 3.32031V2.65625H57.2824V3.32031ZM60.8469 9.67773H52.8391V8.90625H60.8469V9.67773Z" fill="black"/>
<path d="M39 47.5H79" stroke="#D9D9D9"/>
<defs>
<filter id="filter0_d_955_3009" x="0.398438" y="16.1641" width="118.238" height="16.5312" filterUnits="userSpaceOnUse" color-interpolation-filters="sRGB">
<feFlood flood-opacity="0" result="BackgroundImageFix"/>
<feColorMatrix in="SourceAlpha" type="matrix" values="0 0 0 0 0 0 0 0 0 0 0 0 0 0 0 0 0 0 127 0" result="hardAlpha"/>
<feOffset dx="0.5" dy="0.5"/>
<feGaussianBlur stdDeviation="0.5"/>
<feComposite in2="hardAlpha" operator="out"/>
<feColorMatrix type="matrix" values="0 0 0 0 0 0 0 0 0 0 0 0 0 0 0 0 0 0 0.25 0"/>
<feBlend mode="normal" in2="BackgroundImageFix" result="effect1_dropShadow_955_3009"/>
<feBlend mode="normal" in="SourceGraphic" in2="effect1_dropShadow_955_3009" result="shape"/>
</filter>
</defs>
</svg>
