<svg width="28" height="28" viewBox="0 0 28 28" fill="none" xmlns="http://www.w3.org/2000/svg">
<path d="M13.5357 1C15.73 1 17.8344 1.87168 19.386 3.42327C20.9376 4.97487 21.8093 7.07928 21.8093 9.27357C21.8093 18.4729 25.165 20.2857 26.0714 20.2857H1C1.92571 20.2857 5.26214 18.4536 5.26214 9.27357C5.26214 7.07928 6.13382 4.97487 7.68542 3.42327C9.23701 1.87168 11.3414 1 13.5357 1V1Z" stroke="#000001" stroke-width="2" stroke-linecap="round" stroke-linejoin="round"/>
<path d="M10.6426 23.8149C10.8093 24.4553 11.1837 25.0222 11.7073 25.4269C12.2308 25.8316 12.8738 26.0511 13.5354 26.0511C14.1971 26.0511 14.8401 25.8316 15.3636 25.4269C15.8871 25.0222 16.2616 24.4553 16.4283 23.8149" stroke="#000001" stroke-width="2" stroke-linecap="round" stroke-linejoin="round"/>
</svg>
