<svg width="26" height="26" viewBox="0 0 26 26" fill="none" xmlns="http://www.w3.org/2000/svg">
<path d="M22.0078 16.7312C22.4978 15.5482 22.75 14.2804 22.75 13C22.75 10.4141 21.7228 7.93419 19.8943 6.10571C18.0658 4.27723 15.5859 3.25 13 3.25C10.4141 3.25 7.93419 4.27723 6.10571 6.10571C4.27723 7.93419 3.25 10.4141 3.25 13C3.25 14.2804 3.50219 15.5482 3.99217 16.7312C4.48216 17.9141 5.20034 18.9889 6.10571 19.8943C7.01108 20.7997 8.08591 21.5178 9.26884 22.0078C10.4518 22.4978 11.7196 22.75 13 22.75C14.2804 22.75 15.5482 22.4978 16.7312 22.0078C17.9141 21.5178 18.9889 20.7997 19.8943 19.8943C20.7997 18.9889 21.5178 17.9141 22.0078 16.7312Z" fill="black"/>
<path d="M9.75 13L11.9167 15.1667L16.25 10.8333M22.75 13C22.75 14.2804 22.4978 15.5482 22.0078 16.7312C21.5178 17.9141 20.7997 18.9889 19.8943 19.8943C18.9889 20.7997 17.9141 21.5178 16.7312 22.0078C15.5482 22.4978 14.2804 22.75 13 22.75C11.7196 22.75 10.4518 22.4978 9.26884 22.0078C8.08591 21.5178 7.01108 20.7997 6.10571 19.8943C5.20034 18.9889 4.48216 17.9141 3.99217 16.7312C3.50219 15.5482 3.25 14.2804 3.25 13C3.25 10.4141 4.27723 7.93419 6.10571 6.10571C7.93419 4.27723 10.4141 3.25 13 3.25C15.5859 3.25 18.0658 4.27723 19.8943 6.10571C21.7228 7.93419 22.75 10.4141 22.75 13Z" stroke="#428238" stroke-width="3" stroke-linecap="round" stroke-linejoin="round"/>
</svg>
