<svg width="50" height="50" viewBox="0 0 20 20" fill="none" xmlns="http://www.w3.org/2000/svg">
<path fill-rule="evenodd" clip-rule="evenodd" d="M14.79 1.17L18.09 4.47C18.84 5.22079 19.2608 6.23882 19.26 7.3V11.96C19.2608 13.0212 18.84 14.0392 18.09 14.79L14.79 18.09C14.0392 18.84 13.0212 19.2608 11.96 19.26H7.3C6.23882 19.2608 5.22079 18.84 4.47 18.09L1.17 14.79C0.420047 14.0392 -0.000833221 13.0212 1.23847e-06 11.96V7.3C-0.000833221 6.23882 0.420047 5.22079 1.17 4.47L4.47 1.17C5.22079 0.420047 6.23882 -0.000833221 7.3 1.23847e-06H11.96C13.0212 -0.000833221 14.0392 0.420047 14.79 1.17ZM16.9 13.63C17.3379 13.1855 17.5793 12.5839 17.57 11.96V7.27C17.5713 6.65644 17.3306 6.06713 16.9 5.63L13.63 2.36C13.1782 1.91452 12.5643 1.67255 11.93 1.69H7.27C6.65644 1.68869 6.06713 1.92945 5.63 2.36L2.36 5.63C1.92206 6.07449 1.6807 6.67608 1.69 7.3V11.99C1.68869 12.6036 1.92945 13.1929 2.36 13.63L5.63 16.9C6.07449 17.3379 6.67608 17.5793 7.3 17.57H11.99C12.6036 17.5713 13.1929 17.3306 13.63 16.9L16.9 13.63Z" fill="darkgray"/>
<path d="M9.63 11.49C9.21579 11.49 8.88 11.8258 8.88 12.24C8.88 12.6542 9.21579 12.99 9.63 12.99C10.0442 12.99 10.38 12.6542 10.38 12.24C10.38 11.8258 10.0442 11.49 9.63 11.49Z" fill="darkgray"/>
<path d="M9.63 10.12C10.042 10.1146 10.3746 9.78197 10.38 9.37V6.27C10.38 5.85579 10.0442 5.52 9.63 5.52C9.21579 5.52 8.88 5.85579 8.88 6.27V9.37C8.88539 9.78197 9.21804 10.1146 9.63 10.12Z" fill="darkgray"/>
</svg>
